<?xml version="1.0" encoding="UTF-8" standalone="no"?>
<svg
   xmlns:svg="http://www.w3.org/2000/svg"
   xmlns="http://www.w3.org/2000/svg"
   width="97.62677mm"
   height="26.799927mm"
   viewBox="0 0 97.626769 26.799926"
   version="1.1"
   id="svg864">
  <path
     id="circle4277"
     d="m 16.799909,13.39995 a 3.3999529,3.3999529 0 0 1 -3.399954,3.39996 3.3999529,3.3999529 0 0 1 -3.399953,-3.39996 3.3999529,3.3999529 0 0 1 3.399953,-3.399949 3.3999529,3.3999529 0 0 1 3.399954,3.399949 z"
     style="fill:#edd400;opacity:1;fill-opacity:1;fill-rule:nonzero;stroke:none;" />
  <path
     d="m 46.148652,7.803423 v 2.406093 h -0.01612 -1.906684 v 5.32e-4 c -0.125701,0 -0.244849,0.0057 -0.361695,0.01299 -0.05625,0.004 -0.111133,0.0092 -0.165255,0.01455 -0.05043,0.005 -0.09894,0.01165 -0.147588,0.01819 -0.14886,0.02061 -0.291401,0.04646 -0.424055,0.08055 -0.143352,0.03691 -0.280678,0.07908 -0.404306,0.132517 -0.398501,0.161515 -0.710312,0.398056 -0.936453,0.710395 -0.236954,0.301549 -0.404046,0.66782 -0.500966,1.098592 -0.09692,0.420032 -0.14551,0.888265 -0.14551,1.4052 v 0.646475 c 0,0.516935 0.04858,0.985157 0.14551,1.4052 0.09692,0.430772 0.264012,0.797043 0.500966,1.098592 0.226141,0.312338 0.537952,0.5494 0.936453,0.710914 0.123628,0.0535 0.260954,0.09557 0.404306,0.132517 0.132654,0.03409 0.275195,0.05941 0.424055,0.08003 0.04864,0.006 0.09715,0.01316 0.147588,0.01819 0.05412,0.006 0.109005,0.01073 0.165255,0.01455 0.116846,0.007 0.235994,0.01351 0.361695,0.01351 h 1.906684 0.01612 1.971125 0.01612 V 7.803423 Z m -1.793917,4.03839 h 1.777807 v 4.329408 h -1.777807 c -0.49542,0 -0.823757,-0.156417 -0.985301,-0.468746 -0.161546,-0.312309 -0.242169,-0.823758 -0.242169,-1.534599 v -0.322718 c 0,-0.71083 0.08062,-1.222809 0.242169,-1.535118 0.161544,-0.312339 0.489881,-0.468227 0.985301,-0.468227 z m -8.02897,-1.631258 v 7.592444 H 38.313 v -5.961186 h 1.472237 c 0.334803,0 0.591484,0.07303 0.773797,0.215665 l 0.836154,-1.59644 c -0.39515,-0.166537 -0.888088,-0.250483 -1.48107,-0.250483 z m -8.651819,5.960473 h -2.878729 c -0.495421,0 -0.824047,-0.156064 -0.985592,-0.468393 -0.161546,-0.312309 -0.242234,-0.824074 -0.242234,-1.534915 v -2.764712 c 0,-0.710841 0.08069,-1.222607 0.242234,-1.5349158 C 23.97117,9.5557631 24.299796,9.399689 24.795217,9.399689 h 2.878729 l 0.261476,-1.6318583 h -1.100309 -2.169058 v -5.03e-5 c -0.1257,0 -0.244561,0.00603 -0.361406,0.013274 -0.05626,0.00402 -0.111623,0.00905 -0.165746,0.014381 -0.05043,0.00503 -0.09879,0.011766 -0.14744,0.018303 -0.14886,0.020615 -0.291418,0.046259 -0.424072,0.08035 -0.143352,0.036907 -0.280462,0.079043 -0.404091,0.1324819 -0.398499,0.1615145 -0.710663,0.3983004 -0.936805,0.7106396 -0.236954,0.3015486 -0.403636,0.6678901 -0.500558,1.0986625 -0.09692,0.4200416 -0.145765,0.8882636 -0.145765,1.4051986 v 3.088435 c 0,0.516935 0.04884,0.985157 0.145765,1.405199 0.09692,0.430773 0.263604,0.797114 0.500558,1.098663 0.226142,0.312339 0.538306,0.549125 0.936805,0.710639 0.123629,0.0535 0.260739,0.09553 0.404091,0.132482 0.132654,0.03409 0.275212,0.05973 0.424072,0.08035 0.04864,0.006 0.097,0.01328 0.14744,0.0183 0.05412,0.006 0.109495,0.01056 0.165746,0.01438 0.116845,0.007 0.235706,0.01327 0.361406,0.01327 h 2.169058 1.100309 z m 54.64969,-8.6119162 c -1.874457,1.7802996 -2.319632,3.9935642 -2.319632,6.4482202 0,2.454656 0.445175,4.665949 2.319632,6.446248 l 0.801363,-0.842608 c -1.60144,-1.520998 -1.958233,-3.279334 -1.958233,-5.60364 0,-2.324306 0.356793,-4.0846139 1.958233,-5.6056114 z m 2.981538,0 -0.801362,0.8426088 c 1.601439,1.5209975 1.960197,3.2813054 1.960197,5.6056114 0,2.324306 -0.358758,4.082642 -1.960197,5.60364 l 0.801362,0.842608 c 1.87446,-1.780299 2.321597,-3.991592 2.321597,-6.446248 0,-2.454656 -0.447139,-4.6679206 -2.321597,-6.4482202 z M 31.252867,10.209886 c -0.125701,0 -0.244561,0.006 -0.361408,0.01328 -0.05625,0.004 -0.111623,0.0091 -0.165745,0.01438 -0.05043,0.005 -0.09879,0.01177 -0.147439,0.0183 -0.14886,0.02061 -0.291419,0.04626 -0.42407,0.08035 -0.143355,0.03691 -0.280463,0.07904 -0.404091,0.132482 -0.398501,0.161514 -0.710693,0.398301 -0.936836,0.710639 -0.236952,0.301549 -0.403636,0.667891 -0.500556,1.098663 -0.09692,0.420032 -0.145766,0.888264 -0.145766,1.405199 v 0.646329 c 0,0.516935 0.04884,0.985157 0.145766,1.4052 0.09692,0.430772 0.263604,0.797113 0.500556,1.098662 0.226143,0.312339 0.538335,0.549125 0.936836,0.710639 0.123628,0.0535 0.260736,0.09553 0.404091,0.132482 0.132651,0.03409 0.27521,0.05973 0.42407,0.08035 0.04864,0.006 0.097,0.01327 0.147439,0.0183 0.05412,0.006 0.109495,0.01056 0.165745,0.01438 0.116847,0.007 0.235707,0.01327 0.361408,0.01327 h 1.906873 1.987219 V 10.209735 H 33.15974 31.252867 Z m 0.129163,1.631909 h 1.77771 v 4.329233 h -1.77771 c -0.495424,0 -0.824048,-0.156064 -0.985595,-0.468393 -0.161543,-0.312309 -0.24223,-0.824074 -0.24223,-1.534915 v -0.322617 c 0,-0.71083 0.08069,-1.222596 0.24223,-1.534905 0.161547,-0.312339 0.490171,-0.468403 0.985595,-0.468403 z m 45.675129,4.329233 h -2.311107 c -0.495421,0 -0.824048,-0.156064 -0.985592,-0.468393 -0.161546,-0.312309 -0.242233,-0.824074 -0.242233,-1.534915 v -0.322617 c 0,-0.71083 0.08069,-1.222596 0.242233,-1.534905 0.161544,-0.312339 0.490171,-0.468403 0.985592,-0.468403 h 2.311107 l 0.261476,-1.631859 h -1.100309 -1.601437 v -5e-5 c -0.125698,0 -0.244561,0.006 -0.361405,0.01328 -0.05626,0.004 -0.111623,0.0091 -0.165745,0.01438 -0.05043,0.005 -0.09879,0.01177 -0.147442,0.0183 -0.148857,0.02061 -0.291417,0.04626 -0.42407,0.08035 -0.143355,0.03691 -0.280463,0.07904 -0.404091,0.132482 -0.398501,0.161514 -0.710666,0.398301 -0.936804,0.710639 -0.236957,0.301549 -0.403639,0.667891 -0.500561,1.098663 -0.09692,0.420032 -0.145763,0.888264 -0.145763,1.405199 v 0.646329 c 0,0.516935 0.04884,0.985157 0.145763,1.4052 0.09692,0.430772 0.263604,0.797113 0.500561,1.098662 0.226138,0.312339 0.538303,0.549125 0.936804,0.710639 0.123628,0.0535 0.260736,0.09553 0.404091,0.132482 0.132653,0.03409 0.275213,0.05973 0.42407,0.08035 0.04864,0.006 0.09701,0.01327 0.147442,0.0183 0.05412,0.006 0.109495,0.01056 0.165745,0.01438 0.116844,0.007 0.235707,0.01327 0.361405,0.01327 h 1.601437 1.100309 z m -14.260767,1.631939 h -3.588541 c -0.603127,0 -1.103912,-0.08618 -1.502383,-0.258467 C 57.306967,17.382985 56.994631,17.146028 56.76849,16.833699 56.531536,16.53215 56.364599,16.16597 56.267677,15.735208 56.170754,15.315166 56.12231,14.846672 56.12231,14.329737 v -4.119439 h 1.98702 v 3.957874 c 0,0.710831 0.08077,1.222396 0.242318,1.534705 0.161546,0.312339 0.490001,0.468493 0.985424,0.468493 h 1.472301 v -5.961072 h 1.987019 z m 1.190053,-7.592669 h 3.588542 c 0.603127,0 1.103911,0.08618 1.502383,0.258468 0.398501,0.161545 0.710836,0.398481 0.936977,0.71081 0.236954,0.301559 0.403891,0.66773 0.500814,1.098522 0.09692,0.420022 0.145366,0.897858 0.145366,1.40546 v 4.119439 h -1.987019 v -3.957894 c 0,-0.71082 -0.08078,-1.222385 -0.242318,-1.534704 -0.161547,-0.312329 -0.490001,-0.468494 -0.985424,-0.468494 h -1.472301 v 5.961092 h -1.98702 z M 49.309753,17.802997 V 7.8032389 h 6.12261 v 1.6477775 h -4.135588 v 2.4232196 h 3.618653 v 1.647778 h -3.618653 v 4.280983 z"
     style="fill:#2e3436;opacity:1;fill-opacity:1;fill-rule:nonzero;stroke:none;"
     id="rect4314" />
</svg>
