<?xml version="1.0" encoding="UTF-8" standalone="no"?>
<svg
   xmlns:svg="http://www.w3.org/2000/svg"
   xmlns="http://www.w3.org/2000/svg"
   width="93.654297mm"
   height="26.799927mm"
   viewBox="0 0 93.654296 26.799926"
   version="1.1"
   id="svg864">
  <path
     id="circle5433"
     d="M 16.799906,13.39996 A 3.3999529,3.3999529 0 0 1 13.399952,16.79991 3.3999529,3.3999529 0 0 1 10,13.39996 a 3.3999529,3.3999529 0 0 1 3.399952,-3.39995 3.3999529,3.3999529 0 0 1 3.399954,3.39995 z"
     style="fill:#cc0000;opacity:1;fill-opacity:1;fill-rule:nonzero;stroke:none;" />
  <path
     d="m 78.351155,7.55937 c -1.874439,1.78029 -2.321595,3.99159 -2.321595,6.44624 0,2.45467 0.447157,4.66792 2.321595,6.44822 l 0.801362,-0.8426 c -1.601424,-1.521 -1.958232,-3.28131 -1.958231,-5.60562 0,-2.32429 0.356808,-4.08264 1.958231,-5.60364 z m 2.98154,0 -0.801362,0.8426 c 1.601425,1.521 1.958231,3.27935 1.958231,5.60364 0,2.32431 -0.356805,4.08462 -1.958231,5.60562 l 0.801362,0.8426 c 1.874439,-1.7803 2.321595,-3.99355 2.321595,-6.44822 0,-2.45465 -0.447155,-4.66595 -2.321595,-6.44624 z M 32.388121,10.2099 c -0.1257,0 -0.244561,0.006 -0.361406,0.0133 -0.05626,0.004 -0.111623,0.009 -0.165746,0.0144 -0.05043,0.005 -0.09879,0.0118 -0.14744,0.0183 -0.148859,0.0206 -0.291418,0.0462 -0.424071,0.0803 -0.143354,0.0369 -0.280463,0.079 -0.404091,0.13248 -0.398499,0.16151 -0.710676,0.3983 -0.936817,0.71064 -0.236954,0.30155 -0.403636,0.66789 -0.500558,1.09866 -0.09692,0.42004 -0.145765,0.88826 -0.145765,1.4052 v 0.64634 c 0,0.51692 0.04884,0.98515 0.145765,1.4052 0.09692,0.43076 0.263604,0.7971 0.500558,1.09866 0.226141,0.31233 0.538318,0.54911 0.936817,0.71063 0.123628,0.0535 0.260737,0.0955 0.404091,0.13248 0.132653,0.0341 0.275212,0.0597 0.424071,0.0804 0.04864,0.006 0.097,0.0133 0.14744,0.0183 0.05412,0.006 0.109495,0.0106 0.165746,0.0144 0.116845,0.007 0.235706,0.0133 0.361406,0.0133 h 1.906876 1.98722 v -7.59307 h -1.98722 -1.906876 z m 0.129163,1.63192 h 1.777713 v 4.32923 h -1.777713 c -0.495423,0 -0.824048,-0.15606 -0.985593,-0.4684 -0.161545,-0.31231 -0.242233,-0.82408 -0.242233,-1.53491 v -0.32261 c 0,-0.71085 0.08069,-1.22261 0.242233,-1.53492 0.161545,-0.31233 0.49017,-0.46839 0.985593,-0.46839 z m 4.955035,-1.63148 v 4.11946 c 0,0.51693 0.04859,0.98516 0.14551,1.4052 0.09692,0.43077 0.263492,0.79704 0.500446,1.09859 0.226142,0.31234 0.538475,0.54939 0.936972,0.71091 0.398472,0.17229 0.899251,0.25829 1.502381,0.25829 h 1.594881 c -0.01647,0.58821 -0.0925,1.02963 -0.235414,1.30593 -0.161543,0.31234 -0.489881,0.46823 -0.985301,0.46823 h -1.472759 -1.21396 l -0.205269,1.63178 h 3.020865 c 0.60313,0 1.103909,-0.086 1.502381,-0.25828 0.398498,-0.16151 0.71083,-0.39859 0.936972,-0.71092 0.236954,-0.30155 0.404045,-0.66783 0.500965,-1.09859 0.09263,-0.40144 0.139848,-0.84822 0.143951,-1.33815 h 0.0016 v -0.0671 -7.5254 h -1.987235 v 5.96118 h -1.472238 c -0.495422,0 -0.823757,-0.15641 -0.985303,-0.46874 -0.161547,-0.31231 -0.242688,-0.82377 -0.242688,-1.5346 V 10.21029 Z M 21.752686,7.80321 v 9.99958 h 1.987236 v -3.45324 h 1.850041 c 0.1257,0 0.244328,-0.006 0.361174,-0.0136 0.05626,-0.004 0.111653,-0.008 0.165776,-0.014 0.05044,-0.005 0.09894,-0.0122 0.147587,-0.0182 0.148859,-0.0206 0.291402,-0.0465 0.424055,-0.0805 0.143354,-0.0369 0.280159,-0.079 0.403787,-0.13251 0.398501,-0.16151 0.710833,-0.39807 0.936973,-0.7104 0.236954,-0.30156 0.403524,-0.66833 0.500447,-1.0991 0.09692,-0.42003 0.146029,-0.74587 0.146029,-1.20461 0,-0.45873 -0.0491,-0.78508 -0.146029,-1.20513 C 28.432842,9.44074 28.266269,9.07394 28.029315,8.77239 27.803175,8.46006 27.490843,8.22351 27.092342,8.062 26.968714,8.0086 26.831909,7.9664 26.688555,7.92948 26.555902,7.89538 26.413359,7.86958 26.2645,7.84888 c -0.04865,-0.007 -0.09715,-0.0132 -0.147587,-0.0182 -0.05412,-0.005 -0.109521,-0.0101 -0.165776,-0.0141 -0.116846,-0.007 -0.235474,-0.0135 -0.361174,-0.0135 z m 1.987236,1.63178 h 1.720642 c 0.495422,0 0.824277,0.1564 0.985823,0.46874 0.161551,0.3123 0.242168,0.68657 0.242168,1.1729 0,0.48635 -0.08062,0.8606 -0.242168,1.17291 -0.161546,0.31233 -0.490401,0.46823 -0.985823,0.46823 h -1.720642 z m 49.343871,6.73606 h -2.311092 c -0.495422,0 -0.824047,-0.15606 -0.985593,-0.4684 -0.161545,-0.31231 -0.242232,-0.82408 -0.242232,-1.53491 v -0.32261 c 0,-0.71085 0.08069,-1.22261 0.242232,-1.53492 0.161546,-0.31233 0.490171,-0.46839 0.985593,-0.46839 h 2.311092 l 0.26149,-1.63187 h -1.10031 -1.601435 v -5e-5 c -0.125699,0 -0.24456,0.006 -0.361405,0.0133 -0.05625,0.004 -0.111623,0.009 -0.165747,0.0144 -0.05043,0.005 -0.09879,0.0118 -0.147439,0.0183 -0.14886,0.0206 -0.291418,0.0462 -0.424071,0.0803 -0.143354,0.0369 -0.280463,0.079 -0.404091,0.13248 -0.3985,0.16151 -0.710665,0.3983 -0.936806,0.71064 -0.236954,0.30155 -0.403636,0.66789 -0.500558,1.09866 -0.09692,0.42004 -0.145765,0.88826 -0.145765,1.4052 v 0.64634 c 0,0.51692 0.04884,0.98515 0.145765,1.4052 0.09692,0.43076 0.263604,0.7971 0.500558,1.09866 0.226141,0.31233 0.538306,0.54911 0.936806,0.71063 0.123628,0.0535 0.260737,0.0955 0.404091,0.13248 0.132653,0.0341 0.275211,0.0597 0.424071,0.0804 0.04864,0.006 0.097,0.0133 0.147439,0.0183 0.05412,0.006 0.109496,0.0106 0.165747,0.0144 0.116845,0.007 0.235706,0.0133 0.361405,0.0133 h 1.601435 1.10031 z M 58.823042,17.80299 H 55.2345 c -0.603127,0 -1.103913,-0.0862 -1.502385,-0.25847 -0.398499,-0.16152 -0.710834,-0.39847 -0.936975,-0.71081 -0.236954,-0.30155 -0.403892,-0.66772 -0.500813,-1.09849 -0.09692,-0.42004 -0.14537,-0.88853 -0.14537,-1.40546 v -4.11944 h 1.987023 v 3.95786 c 0,0.71083 0.08077,1.22241 0.242318,1.53472 0.161545,0.31233 0.490001,0.46848 0.985422,0.46848 h 1.472301 v -5.96106 h 1.987021 z m 1.19005,-7.59267 h 3.588542 c 0.603129,0 1.103914,0.0862 1.502385,0.25847 0.3985,0.16154 0.710835,0.39848 0.936975,0.7108 0.236955,0.30156 0.403893,0.66773 0.500815,1.09852 0.09692,0.42002 0.145368,0.89786 0.145368,1.40546 v 4.11945 h -1.987021 v -3.95789 c 0,-0.71083 -0.08077,-1.2224 -0.242319,-1.53472 -0.161546,-0.31233 -0.49,-0.46849 -0.985423,-0.46849 h -1.4723 v 5.9611 H 60.013092 Z M 45.33639,17.80302 V 7.80325 h 6.122611 v 1.64779 h -4.135589 v 2.42321 h 3.618654 v 1.64778 h -3.618654 v 4.28099 z"
     style="fill:#000000;opacity:1;fill-opacity:1;fill-rule:nonzero;stroke:none;"
     id="path5453" />
</svg>
