<?xml version="1.0" encoding="UTF-8" standalone="no"?>
<svg
   xmlns:dc="http://purl.org/dc/elements/1.1/"
   xmlns:cc="http://creativecommons.org/ns#"
   xmlns:rdf="http://www.w3.org/1999/02/22-rdf-syntax-ns#"
   xmlns:svg="http://www.w3.org/2000/svg"
   xmlns="http://www.w3.org/2000/svg"
   id="svg864"
   version="1.1"
   viewBox="0 0 187.30859 53.599852"
   height="53.599854mm"
   width="187.30859mm">
  <metadata
     id="metadata9">
    <rdf:RDF>
      <cc:Work
         rdf:about="">
        <dc:format>image/svg+xml</dc:format>
        <dc:type
           rdf:resource="http://purl.org/dc/dcmitype/StillImage" />
        <dc:title></dc:title>
      </cc:Work>
    </rdf:RDF>
  </metadata>
  <defs
     id="defs7" />
  <path
     style="opacity:1;fill:#cc0000;fill-opacity:1;fill-rule:nonzero;stroke:none;stroke-width:1.00563145;stroke-linecap:round;stroke-linejoin:miter;stroke-miterlimit:4;stroke-dasharray:none;stroke-dashoffset:4.80000019;stroke-opacity:1"
     d="M 33.599812,26.79992 A 6.7999058,6.7999058 0 0 1 26.799904,33.59982 6.7999058,6.7999058 0 0 1 20,26.79992 a 6.7999058,6.7999058 0 0 1 6.799904,-6.7999 6.7999058,6.7999058 0 0 1 6.799908,6.7999 z"
     id="circle5433" />
  <path
     id="path5453"
      style="color:#000000;font-style:normal;font-variant:normal;font-weight:normal;font-stretch:normal;font-size:medium;line-height:normal;font-family:sans-serif;font-variant-ligatures:normal;font-variant-position:normal;font-variant-caps:normal;font-variant-numeric:normal;font-variant-alternates:normal;font-feature-settings:normal;text-indent:0;text-align:start;text-decoration:none;text-decoration-line:none;text-decoration-style:solid;text-decoration-color:#000000;letter-spacing:normal;word-spacing:normal;text-transform:none;writing-mode:lr-tb;direction:ltr;text-orientation:mixed;dominant-baseline:auto;baseline-shift:baseline;text-anchor:start;white-space:normal;shape-padding:0;clip-rule:nonzero;display:inline;overflow:visible;visibility:visible;opacity:1;isolation:auto;mix-blend-mode:normal;color-interpolation:sRGB;color-interpolation-filters:linearRGB;solid-color:#000000;solid-opacity:1;vector-effect:none;fill:#2e3436;fill-opacity:1;fill-rule:evenodd;stroke:none;stroke-width:1.16362739;stroke-linecap:butt;stroke-linejoin:miter;stroke-miterlimit:4;stroke-dasharray:none;stroke-dashoffset:0;stroke-opacity:1;color-rendering:auto;image-rendering:auto;shape-rendering:auto;text-rendering:auto;enable-background:accumulate"
      d="m 156.70231,15.11874 c -3.74888,3.56058 -4.64319,7.98318 -4.64319,12.89248 0,4.90934 0.89432,9.33584 4.64319,12.89644 l 1.60273,-1.6852 c -3.20285,-3.042 -3.91647,-6.56262 -3.91647,-11.21124 0,-4.64858 0.71362,-8.16528 3.91647,-11.20728 z m 5.96308,0 -1.60272,1.6852 c 3.20285,3.042 3.91646,6.5587 3.91646,11.20728 0,4.64862 -0.71361,8.16924 -3.91646,11.21124 l 1.60272,1.6852 c 3.74888,-3.5606 4.64319,-7.9871 4.64319,-12.89644 0,-4.9093 -0.89431,-9.3319 -4.64319,-12.89248 z M 64.776242,20.4198 c -0.2514,0 -0.489122,0.012 -0.722812,0.0266 -0.11252,0.008 -0.223246,0.018 -0.331492,0.0288 -0.10086,0.01 -0.19758,0.0236 -0.29488,0.0366 -0.297718,0.0412 -0.582836,0.0924 -0.848142,0.1606 -0.286708,0.0738 -0.560926,0.158 -0.808182,0.26496 -0.796998,0.32302 -1.421352,0.7966 -1.873634,1.42128 -0.473908,0.6031 -0.807272,1.33578 -1.001116,2.19732 -0.19384,0.84008 -0.29153,1.77652 -0.29153,2.8104 v 1.29268 c 0,1.03384 0.09768,1.9703 0.29153,2.8104 0.19384,0.86152 0.527208,1.5942 1.001116,2.19732 0.452282,0.62466 1.076636,1.09822 1.873634,1.42126 0.247256,0.107 0.521474,0.191 0.808182,0.26496 0.265306,0.0682 0.550424,0.1194 0.848142,0.1608 0.09728,0.012 0.194,0.0266 0.29488,0.0366 0.10824,0.012 0.21899,0.0212 0.331492,0.0288 0.23369,0.014 0.471412,0.0266 0.722812,0.0266 h 3.813752 3.97444 V 20.41964 h -3.97444 -3.813752 z m 0.258326,3.26384 h 3.555426 v 8.65846 h -3.555426 c -0.990846,0 -1.648096,-0.31212 -1.971186,-0.9368 -0.32309,-0.62462 -0.484466,-1.64816 -0.484466,-3.06982 v -0.64522 c 0,-1.4217 0.16138,-2.44522 0.484466,-3.06984 0.32309,-0.62466 0.98034,-0.93678 1.971186,-0.93678 z m 9.91007,-3.26296 v 8.23892 c 0,1.03386 0.09718,1.97032 0.29102,2.8104 0.19384,0.86154 0.526984,1.59408 1.000892,2.19718 0.452284,0.62468 1.07695,1.09878 1.873944,1.42182 0.796944,0.34458 1.798502,0.51658 3.004762,0.51658 h 3.189762 c -0.03294,1.17642 -0.185,2.05926 -0.470828,2.61186 -0.323086,0.62468 -0.979762,0.93646 -1.970602,0.93646 H 78.91807 76.49015 l -0.410538,3.26356 h 6.04173 c 1.20626,0 2.207818,-0.172 3.004762,-0.51656 0.796996,-0.32302 1.42166,-0.79718 1.873944,-1.42184 0.473908,-0.6031 0.80809,-1.33566 1.00193,-2.19718 0.18526,-0.80288 0.279696,-1.69644 0.287902,-2.6763 h 0.0032 v -0.1342 -15.0508 h -3.97447 v 11.92236 h -2.944476 c -0.990844,0 -1.647514,-0.31282 -1.970606,-0.93748 -0.323094,-0.62462 -0.485376,-1.64754 -0.485376,-3.0692 V 20.42058 Z M 43.505372,15.60642 v 19.99916 h 3.974472 V 28.6991 h 3.700082 c 0.2514,0 0.488656,-0.012 0.722348,-0.0272 0.11252,-0.008 0.223306,-0.016 0.331552,-0.028 0.10088,-0.01 0.19788,-0.0244 0.295174,-0.0364 0.297718,-0.0412 0.582804,-0.093 0.84811,-0.161 0.286708,-0.0738 0.560318,-0.158 0.807574,-0.26502 0.797002,-0.32302 1.421666,-0.79614 1.873946,-1.4208 0.473908,-0.60312 0.807048,-1.33666 1.000894,-2.1982 0.19384,-0.84006 0.292058,-1.49174 0.292058,-2.40922 0,-0.91746 -0.0982,-1.57016 -0.292058,-2.41026 -0.19384,-0.86152 -0.526986,-1.59512 -1.000894,-2.19822 -0.45228,-0.62466 -1.076944,-1.09776 -1.873946,-1.42078 -0.247256,-0.1068 -0.520866,-0.1912 -0.807574,-0.26504 -0.265306,-0.0682 -0.550392,-0.1198 -0.84811,-0.1612 -0.0973,-0.014 -0.1943,-0.0264 -0.295174,-0.0364 -0.10824,-0.01 -0.219042,-0.0202 -0.331552,-0.0282 -0.233692,-0.014 -0.470948,-0.027 -0.722348,-0.027 z m 3.974472,3.26356 h 3.441284 c 0.990844,0 1.648554,0.3128 1.971646,0.93748 0.323102,0.6246 0.484336,1.37314 0.484336,2.3458 0,0.9727 -0.16124,1.7212 -0.484336,2.34582 -0.323092,0.62466 -0.980802,0.93646 -1.971646,0.93646 H 47.479844 Z M 146.16759,32.3421 h -4.62219 c -0.99084,0 -1.64809,-0.31212 -1.97118,-0.9368 -0.32309,-0.62462 -0.48447,-1.64816 -0.48447,-3.06982 v -0.64522 c 0,-1.4217 0.16138,-2.44522 0.48447,-3.06984 0.32309,-0.62466 0.98034,-0.93678 1.97118,-0.93678 h 4.62219 l 0.52298,-3.26374 h -2.20062 -3.20287 v -10e-5 c -0.2514,0 -0.48912,0.012 -0.72281,0.0266 -0.1125,0.008 -0.22325,0.018 -0.3315,0.0288 -0.10086,0.01 -0.19758,0.0236 -0.29488,0.0366 -0.29772,0.0412 -0.58283,0.0924 -0.84814,0.1606 -0.28671,0.0738 -0.56092,0.158 -0.80818,0.26496 -0.797,0.32302 -1.42133,0.7966 -1.87361,1.42128 -0.47391,0.6031 -0.80727,1.33578 -1.00112,2.19732 -0.19384,0.84008 -0.29153,1.77652 -0.29153,2.8104 v 1.29268 c 0,1.03384 0.0977,1.9703 0.29153,2.8104 0.19384,0.86152 0.52721,1.5942 1.00112,2.19732 0.45228,0.62466 1.07661,1.09822 1.87361,1.42126 0.24726,0.107 0.52147,0.191 0.80818,0.26496 0.26531,0.0682 0.55042,0.1194 0.84814,0.1608 0.0973,0.012 0.194,0.0266 0.29488,0.0366 0.10824,0.012 0.21899,0.0212 0.3315,0.0288 0.23369,0.014 0.47141,0.0266 0.72281,0.0266 h 3.20287 2.20062 z m -28.52151,3.26388 H 110.469 c -1.20625,0 -2.20783,-0.1724 -3.00477,-0.51694 -0.797,-0.32304 -1.42167,-0.79694 -1.87395,-1.42162 -0.47391,-0.6031 -0.80778,-1.33544 -1.00163,-2.19698 -0.19384,-0.84008 -0.29074,-1.77706 -0.29074,-2.81092 v -8.23888 h 3.97405 v 7.91572 c 0,1.42166 0.16154,2.44482 0.48464,3.06944 0.32309,0.62466 0.98,0.93696 1.97084,0.93696 h 2.9446 V 20.42064 h 3.97404 z m 2.3801,-15.18534 h 7.17709 c 1.20626,0 2.20783,0.1724 3.00477,0.51694 0.797,0.32308 1.42167,0.79696 1.87395,1.4216 0.47391,0.60312 0.80778,1.33546 1.00163,2.19704 0.19384,0.84004 0.29073,1.79572 0.29073,2.81092 v 8.2389 h -3.97404 v -7.91578 c 0,-1.42166 -0.16154,-2.4448 -0.48464,-3.06944 -0.32309,-0.62466 -0.98,-0.93698 -1.97084,-0.93698 h -2.9446 v 11.9222 h -3.97405 z m -29.3534,15.1854 V 15.6065 H 102.918 v 3.29558 h -8.271176 v 4.84642 h 7.237306 v 3.29556 h -7.237306 v 8.56198 z" />
</svg>
     
