<?xml version="1.0" encoding="UTF-8" standalone="no"?>
<svg
   xmlns:svg="http://www.w3.org/2000/svg"
   xmlns="http://www.w3.org/2000/svg"
   id="svg864"
   version="1.1"
   viewBox="0 0 280.96289 80.399778"
   height="80.39978mm"
   width="280.96289mm">
  <path
     style="fill:#cc0000;opacity:1;fill-opacity:1;fill-rule:nonzero;stroke:none;"
     d="M 50.399718,40.19988 A 10.199859,10.199859 0 0 1 40.199856,50.39973 10.199859,10.199859 0 0 1 30,40.19988 10.199859,10.199859 0 0 1 40.199856,30.00003 10.199859,10.199859 0 0 1 50.399718,40.19988 Z"
     id="circle5433" />
  <path
     id="path5453"
     style="fill:#eeeeec;opacity:1;fill-opacity:1;fill-rule:nonzero;stroke:none;"
     d="m 235.05347,22.67811 c -5.62332,5.34087 -6.96479,11.97477 -6.96479,19.33872 0,7.36401 1.34147,14.00376 6.96479,19.34466 l 2.40408,-2.5278 c -4.80427,-4.563 -5.87469,-9.84393 -5.87469,-16.81686 0,-6.97287 1.07043,-12.24792 5.87469,-16.81092 z m 8.94462,0 -2.40409,2.5278 c 4.80428,4.563 5.8747,9.83805 5.8747,16.81092 0,6.97293 -1.07042,12.25386 -5.8747,16.81686 l 2.40409,2.5278 c 5.62332,-5.3409 6.96478,-11.98065 6.96478,-19.34466 0,-7.36395 -1.34146,-13.99785 -6.96478,-19.33872 z M 97.164363,30.6297 c -0.3771,0 -0.733683,0.018 -1.084218,0.0399 -0.16878,0.012 -0.334869,0.027 -0.497238,0.0432 -0.15129,0.015 -0.29637,0.0354 -0.44232,0.0549 -0.446577,0.0618 -0.874254,0.1386 -1.272213,0.2409 -0.430062,0.1107 -0.841389,0.237 -1.212273,0.39744 -1.195497,0.48453 -2.132028,1.1949 -2.810451,2.13192 -0.710862,0.90465 -1.210908,2.00367 -1.501674,3.29598 -0.29076,1.26012 -0.437295,2.66478 -0.437295,4.2156 v 1.93902 c 0,1.55076 0.14652,2.95545 0.437295,4.2156 0.29076,1.29228 0.790812,2.3913 1.501674,3.29598 0.678423,0.93699 1.614954,1.64733 2.810451,2.13189 0.370884,0.1605 0.782211,0.2865 1.212273,0.39744 0.397959,0.1023 0.825636,0.1791 1.272213,0.2412 0.14592,0.018 0.291,0.0399 0.44232,0.0549 0.16236,0.018 0.328485,0.0318 0.497238,0.0432 0.350535,0.021 0.707118,0.0399 1.084218,0.0399 h 5.720627 5.96166 V 30.62946 h -5.96166 -5.720627 z m 0.387489,4.89576 h 5.333138 v 12.98769 h -5.333138 c -1.486269,0 -2.472144,-0.46818 -2.956779,-1.4052 -0.484635,-0.93693 -0.726699,-2.47224 -0.726699,-4.60473 v -0.96783 c 0,-2.13255 0.24207,-3.66783 0.726699,-4.60476 0.484635,-0.93699 1.47051,-1.40517 2.956779,-1.40517 z M 112.41696,30.63102 V 42.9894 c 0,1.55079 0.14577,2.95548 0.43653,4.2156 0.29076,1.29231 0.79047,2.39112 1.50133,3.29577 0.67843,0.93702 1.61543,1.64817 2.81092,2.13273 1.19542,0.51687 2.69775,0.77487 4.50714,0.77487 h 4.78465 c -0.0494,1.76463 -0.2775,3.08889 -0.70625,3.91779 -0.48462,0.93702 -1.46964,1.40469 -2.9559,1.40469 h -4.41828 -3.64188 l -0.6158,4.89534 h 9.06259 c 1.80939,0 3.31173,-0.258 4.50715,-0.77484 1.19549,-0.48453 2.13249,-1.19577 2.81091,-2.13276 0.71086,-0.90465 1.21214,-2.00349 1.5029,-3.29577 0.27789,-1.20432 0.41954,-2.54466 0.43185,-4.01445 h 0.005 v -0.2013 -22.5762 h -5.96171 v 17.88354 h -4.41671 c -1.48627,0 -2.47127,-0.46923 -2.95591,-1.40622 -0.48464,-0.93693 -0.72806,-2.47131 -0.72806,-4.6038 V 30.63087 Z M 65.258058,23.40963 v 29.99874 h 5.961708 V 43.04865 h 5.550123 c 0.3771,0 0.732984,-0.018 1.083522,-0.0408 0.16878,-0.012 0.334959,-0.024 0.497328,-0.042 0.15132,-0.015 0.29682,-0.0366 0.442761,-0.0546 0.446577,-0.0618 0.874206,-0.1395 1.272165,-0.2415 0.430062,-0.1107 0.840477,-0.237 1.211361,-0.39753 1.195503,-0.48453 2.132499,-1.19421 2.810919,-2.1312 0.710862,-0.90468 1.210572,-2.00499 1.501341,-3.2973 0.29076,-1.26009 0.438087,-2.23761 0.438087,-3.61383 0,-1.37619 -0.1473,-2.35524 -0.438087,-3.61539 -0.29076,-1.29228 -0.790479,-2.39268 -1.501341,-3.29733 -0.67842,-0.93699 -1.615416,-1.64664 -2.810919,-2.13117 -0.370884,-0.1602 -0.781299,-0.2868 -1.211361,-0.39756 -0.397959,-0.1023 -0.825588,-0.1797 -1.272165,-0.2418 -0.14595,-0.021 -0.29145,-0.0396 -0.442761,-0.0546 -0.16236,-0.015 -0.328563,-0.0303 -0.497328,-0.0423 -0.350538,-0.021 -0.706422,-0.0405 -1.083522,-0.0405 z m 5.961708,4.89534 h 5.161926 c 1.486266,0 2.472831,0.4692 2.957469,1.40622 0.484653,0.9369 0.726504,2.05971 0.726504,3.5187 0,1.45905 -0.24186,2.5818 -0.726504,3.51873 -0.484638,0.93699 -1.471203,1.40469 -2.957469,1.40469 H 71.219766 Z M 219.25138,48.51315 h -6.93327 c -1.48627,0 -2.47214,-0.46818 -2.95678,-1.4052 -0.48464,-0.93693 -0.7267,-2.47224 -0.7267,-4.60473 v -0.96783 c 0,-2.13255 0.24207,-3.66783 0.7267,-4.60476 0.48464,-0.93699 1.47051,-1.40517 2.95678,-1.40517 h 6.93327 l 0.78447,-4.89561 h -3.30093 -4.8043 v -1.5e-4 c -0.3771,0 -0.73368,0.018 -1.08422,0.0399 -0.16875,0.012 -0.33487,0.027 -0.49724,0.0432 -0.15129,0.015 -0.29637,0.0354 -0.44232,0.0549 -0.44658,0.0618 -0.87425,0.1386 -1.27221,0.2409 -0.43006,0.1107 -0.84139,0.237 -1.21227,0.39744 -1.1955,0.48453 -2.132,1.1949 -2.81042,2.13192 -0.71086,0.90465 -1.21091,2.00367 -1.50167,3.29598 -0.29076,1.26012 -0.4373,2.66478 -0.4373,4.2156 v 1.93902 c 0,1.55076 0.14652,2.95545 0.4373,4.2156 0.29076,1.29228 0.79081,2.3913 1.50167,3.29598 0.67842,0.93699 1.61492,1.64733 2.81042,2.13189 0.37088,0.1605 0.78221,0.2865 1.21227,0.39744 0.39796,0.1023 0.82563,0.1791 1.27221,0.2412 0.14592,0.018 0.291,0.0399 0.44232,0.0549 0.16236,0.018 0.32849,0.0318 0.49724,0.0432 0.35054,0.021 0.70712,0.0399 1.08422,0.0399 h 4.8043 3.30093 z m -42.78225,4.89582 H 165.7035 c -1.80938,0 -3.31174,-0.2586 -4.50716,-0.77541 -1.19549,-0.48456 -2.1325,-1.19541 -2.81092,-2.13243 -0.71086,-0.90465 -1.21168,-2.00316 -1.50244,-3.29547 -0.29076,-1.26012 -0.43611,-2.66559 -0.43611,-4.21638 V 30.63096 h 5.96107 v 11.87358 c 0,2.13249 0.24231,3.66723 0.72695,4.60416 0.48464,0.93699 1.47001,1.40544 2.95627,1.40544 h 4.4169 V 30.63096 h 5.96107 z m 3.57015,-22.77801 h 10.76562 c 1.80939,0 3.31175,0.2586 4.50716,0.77541 1.1955,0.48462 2.13251,1.19544 2.81093,2.1324 0.71086,0.90468 1.21167,2.00319 1.50244,3.29556 0.29076,1.26006 0.4361,2.69358 0.4361,4.21638 v 12.35835 h -5.96106 V 41.53539 c 0,-2.13249 -0.24231,-3.6672 -0.72696,-4.60416 -0.48464,-0.93699 -1.47,-1.40547 -2.95627,-1.40547 h -4.4169 v 17.8833 h -5.96106 z m -44.03011,22.7781 V 23.40975 H 154.377 v 4.94337 h -12.40676 v 7.26963 h 10.85596 v 4.94334 h -10.85596 v 12.84297 z" />
</svg>
