<?xml version="1.0" encoding="UTF-8" standalone="no"?>
<svg
   xmlns:dc="http://purl.org/dc/elements/1.1/"
   xmlns:cc="http://creativecommons.org/ns#"
   xmlns:rdf="http://www.w3.org/1999/02/22-rdf-syntax-ns#"
   xmlns:svg="http://www.w3.org/2000/svg"
   xmlns="http://www.w3.org/2000/svg"
   id="svg864"
   version="1.1"
   viewBox="0 0 37.461719 10.71997"
   height="10.719971mm"
   width="37.46172mm">
  <metadata
     id="metadata9">
    <rdf:RDF>
      <cc:Work
         rdf:about="">
        <dc:format>image/svg+xml</dc:format>
        <dc:type
           rdf:resource="http://purl.org/dc/dcmitype/StillImage" />
        <dc:title></dc:title>
      </cc:Work>
    </rdf:RDF>
  </metadata>
  <defs
     id="defs7" />
  <path
     style="opacity:1;fill:#cc0000;fill-opacity:1;fill-rule:nonzero;stroke:none;stroke-width:0.40225258;stroke-linecap:round;stroke-linejoin:miter;stroke-miterlimit:4;stroke-dasharray:none;stroke-dashoffset:4.80000019;stroke-opacity:1"
     d="m 6.7199623,5.359984 a 1.3599812,1.3599812 0 0 1 -1.359981,1.35998 1.3599812,1.3599812 0 0 1 -1.359981,-1.35998 1.3599812,1.3599812 0 0 1 1.359981,-1.35998 1.3599812,1.3599812 0 0 1 1.359981,1.35998 z"
     id="circle5433" />
  <path
     id="path5453"
     style="color:#000000;font-style:normal;font-variant:normal;font-weight:normal;font-stretch:normal;font-size:medium;line-height:normal;font-family:sans-serif;font-variant-ligatures:normal;font-variant-position:normal;font-variant-caps:normal;font-variant-numeric:normal;font-variant-alternates:normal;font-feature-settings:normal;text-indent:0;text-align:start;text-decoration:none;text-decoration-line:none;text-decoration-style:solid;text-decoration-color:#000000;letter-spacing:normal;word-spacing:normal;text-transform:none;writing-mode:lr-tb;direction:ltr;text-orientation:mixed;dominant-baseline:auto;baseline-shift:baseline;text-anchor:start;white-space:normal;shape-padding:0;clip-rule:nonzero;display:inline;overflow:visible;visibility:visible;opacity:1;isolation:auto;mix-blend-mode:normal;color-interpolation:sRGB;color-interpolation-filters:linearRGB;solid-color:#000000;solid-opacity:1;vector-effect:none;fill:#2e3436;fill-opacity:1;fill-rule:evenodd;stroke:none;stroke-width:0.46545094;stroke-linecap:butt;stroke-linejoin:miter;stroke-miterlimit:4;stroke-dasharray:none;stroke-dashoffset:0;stroke-opacity:1;color-rendering:auto;image-rendering:auto;shape-rendering:auto;text-rendering:auto;enable-background:accumulate"
     d="m 31.340462,3.023748 c -0.749776,0.712116 -0.928638,1.596636 -0.928638,2.578496 0,0.981868 0.178863,1.867168 0.928638,2.579288 l 0.320545,-0.33704 c -0.64057,-0.6084 -0.783293,-1.312524 -0.783293,-2.242248 0,-0.929716 0.142724,-1.633056 0.783293,-2.241456 z m 1.192616,0 -0.320545,0.33704 c 0.64057,0.6084 0.783293,1.31174 0.783293,2.241456 0,0.929724 -0.142722,1.633848 -0.783293,2.242248 l 0.320545,0.33704 c 0.749776,-0.71212 0.928638,-1.59742 0.928638,-2.579288 0,-0.98186 -0.178862,-1.86638 -0.928638,-2.578496 z M 12.955248,4.08396 c -0.05028,0 -0.09782,0.0024 -0.144562,0.0053 -0.0225,0.0016 -0.04465,0.0036 -0.0663,0.0058 -0.02017,0.002 -0.03952,0.0047 -0.05898,0.0073 -0.05954,0.0082 -0.116568,0.01848 -0.169629,0.03212 -0.05734,0.01476 -0.112185,0.0316 -0.161636,0.05299 -0.1594,0.0646 -0.284271,0.15932 -0.374727,0.284256 -0.09478,0.12062 -0.161454,0.267156 -0.200223,0.439464 -0.03877,0.168016 -0.05831,0.355304 -0.05831,0.56208 v 0.258536 c 0,0.206768 0.01954,0.39406 0.05831,0.56208 0.03877,0.172304 0.105441,0.31884 0.200223,0.439464 0.09046,0.124932 0.215327,0.219644 0.374727,0.284252 0.04945,0.0214 0.104295,0.0382 0.161636,0.05299 0.05306,0.01364 0.110085,0.02388 0.169629,0.03216 0.01946,0.0024 0.0388,0.0053 0.05898,0.0073 0.02165,0.0024 0.0438,0.0042 0.0663,0.0058 0.04674,0.0028 0.09428,0.0053 0.144562,0.0053 h 0.762751 0.794888 V 4.083924 h -0.794888 -0.762751 z m 0.05167,0.652768 h 0.711085 V 6.46842 h -0.711085 c -0.19817,0 -0.32962,-0.06242 -0.394238,-0.18736 C 12.54806,6.156136 12.51579,5.951428 12.51579,5.667096 V 5.538052 c 0,-0.28434 0.03228,-0.489044 0.09689,-0.613968 0.06462,-0.124932 0.196068,-0.187356 0.394238,-0.187356 z M 14.988932,4.084136 V 5.73192 c 0,0.206772 0.01944,0.394064 0.0582,0.56208 0.03877,0.172308 0.105396,0.318816 0.200178,0.439436 0.09046,0.124936 0.21539,0.219756 0.374789,0.284364 0.159389,0.06892 0.3597,0.103316 0.600952,0.103316 h 0.637953 c -0.0066,0.235284 -0.037,0.411852 -0.09417,0.522372 -0.06462,0.124936 -0.195952,0.187292 -0.39412,0.187292 H 15.78361 15.298026 l -0.08211,0.652712 h 1.208346 c 0.241252,0 0.441564,-0.0344 0.600953,-0.103312 0.159399,-0.0646 0.284332,-0.159436 0.374789,-0.284368 0.09478,-0.12062 0.161618,-0.267132 0.200386,-0.439436 0.03705,-0.160576 0.05594,-0.339288 0.05758,-0.53526 h 6.4e-4 v -0.02684 -3.01016 h -0.794894 v 2.384472 h -0.588895 c -0.198169,0 -0.329503,-0.06256 -0.394121,-0.187496 C 15.81608,6.156168 15.78362,5.951584 15.78362,5.667252 V 4.084116 Z M 8.7010783,3.121284 v 3.999832 h 0.794895 V 5.73982 h 0.7400157 c 0.05028,0 0.09773,-0.0024 0.14447,-0.0054 0.0225,-0.0016 0.04466,-0.0032 0.06631,-0.0056 0.02018,-0.002 0.03958,-0.0049 0.05904,-0.0073 0.05954,-0.0082 0.116561,-0.0186 0.169622,-0.0322 0.05734,-0.01476 0.112064,-0.0316 0.161515,-0.053 0.1594,-0.0646 0.284333,-0.159228 0.374789,-0.28416 0.09478,-0.120624 0.16141,-0.267332 0.200179,-0.43964 0.03877,-0.168012 0.05841,-0.298348 0.05841,-0.481844 0,-0.183492 -0.01964,-0.314032 -0.05841,-0.482052 C 11.373144,3.77632 11.306517,3.6296 11.211735,3.50898 11.121275,3.384048 10.996346,3.289428 10.836946,3.224824 c -0.04945,-0.02136 -0.104173,-0.03824 -0.161515,-0.05301 -0.05306,-0.01364 -0.110078,-0.02396 -0.169622,-0.03224 -0.01946,-0.0028 -0.03886,-0.0053 -0.05904,-0.0073 -0.02165,-0.002 -0.04381,-0.004 -0.06631,-0.0056 -0.04674,-0.0028 -0.09419,-0.0054 -0.14447,-0.0054 z m 0.794895,0.652712 H 10.18423 c 0.198168,0 0.32971,0.06256 0.394329,0.187496 0.06462,0.12492 0.09687,0.274628 0.09687,0.46916 0,0.19454 -0.03225,0.34424 -0.09687,0.469164 -0.06462,0.124932 -0.196161,0.187292 -0.394329,0.187292 H 9.4959733 Z M 29.233521,6.46842 h -0.924437 c -0.198168,0 -0.329618,-0.06242 -0.394237,-0.18736 -0.06462,-0.124924 -0.09689,-0.329632 -0.09689,-0.613964 V 5.538052 c 0,-0.28434 0.03228,-0.489044 0.09689,-0.613968 0.06462,-0.124932 0.196069,-0.187356 0.394237,-0.187356 h 0.924437 L 29.338117,4.08398 h -0.440124 -0.640574 v -2e-5 c -0.05028,0 -0.09782,0.0024 -0.144562,0.0053 -0.0225,0.0016 -0.04465,0.0036 -0.0663,0.0058 -0.02017,0.002 -0.03952,0.0047 -0.05897,0.0073 -0.05954,0.0082 -0.116567,0.01848 -0.169629,0.03212 -0.05734,0.01476 -0.112185,0.0316 -0.161636,0.05299 -0.1594,0.0646 -0.284266,0.15932 -0.374722,0.284256 -0.09478,0.12062 -0.161455,0.267156 -0.200224,0.439464 -0.03877,0.168016 -0.05831,0.355304 -0.05831,0.56208 v 0.258536 c 0,0.206768 0.01954,0.39406 0.05831,0.56208 0.03877,0.172304 0.105442,0.31884 0.200224,0.439464 0.09046,0.124932 0.215322,0.219644 0.374722,0.284252 0.04945,0.0214 0.104295,0.0382 0.161636,0.05299 0.05306,0.01364 0.110085,0.02388 0.169629,0.03216 0.01946,0.0024 0.0388,0.0053 0.05897,0.0073 0.02165,0.0024 0.0438,0.0042 0.0663,0.0058 0.04674,0.0028 0.09428,0.0053 0.144562,0.0053 h 0.640574 0.440124 z m -5.7043,0.652776 h -1.435417 c -0.241251,0 -0.441565,-0.03448 -0.600954,-0.103388 C 21.33345,6.953198 21.208516,6.85842 21.11806,6.733484 21.02328,6.612864 20.956503,6.466396 20.917735,6.294088 20.878965,6.126072 20.859585,5.938676 20.859585,5.731904 V 4.084128 h 0.794809 v 1.583144 c 0,0.284332 0.03231,0.488964 0.09693,0.613888 0.06462,0.124932 0.196001,0.187392 0.394169,0.187392 h 0.58892 V 4.084128 h 0.794809 z m 0.47602,-3.037068 h 1.435417 c 0.241251,0 0.441565,0.03448 0.600954,0.103388 0.1594,0.06462 0.284334,0.159392 0.37479,0.28432 0.09478,0.120624 0.161557,0.267092 0.200326,0.439408 0.03877,0.168008 0.05815,0.359144 0.05815,0.562184 v 1.64778 H 25.880062 V 5.538052 c 0,-0.284332 -0.03231,-0.48896 -0.09693,-0.613888 -0.06462,-0.124932 -0.196,-0.187396 -0.394169,-0.187396 h -0.58892 v 2.38444 H 24.005234 Z M 18.13456,7.121208 V 3.1213 h 2.449044 V 3.780416 H 18.929369 V 4.7497 h 1.447461 v 0.659112 h -1.447461 v 1.712396 z" />
</svg>
