<?xml version="1.0" encoding="UTF-8" standalone="no"?>
<svg
   xmlns:svg="http://www.w3.org/2000/svg"
   xmlns="http://www.w3.org/2000/svg"
   id="svg864"
   version="1.1"
   viewBox="0 0 374.61718 107.1997"
   height="107.19971mm"
   width="374.61719mm">
  <path
     style="fill:#cc0000;opacity:1;fill-opacity:1;fill-rule:nonzero;stroke:none;"
     d="M 67.199624,53.59984 A 13.599812,13.599812 0 0 1 53.599808,67.19964 13.599812,13.599812 0 0 1 39.999995,53.59984 13.599812,13.599812 0 0 1 53.599808,40.00004 13.599812,13.599812 0 0 1 67.199624,53.59984 Z"
     id="circle5433" />
  <path
     id="path5453"
     style="fill:#000000;opacity:1;fill-opacity:1;fill-rule:nonzero;stroke:none;"
     d="m 313.40462,30.23748 c -7.49775,7.12116 -9.28638,15.96636 -9.28638,25.78496 0,9.81868 1.78863,18.67168 9.28638,25.79288 l 3.20545,-3.3704 c -6.40569,-6.084 -7.83293,-13.12524 -7.83292,-22.42248 0,-9.29716 1.42723,-16.33056 7.83292,-22.41456 z m 11.92616,0 -3.20544,3.3704 c 6.4057,6.084 7.83292,13.1174 7.83292,22.41456 0,9.29724 -1.42722,16.33848 -7.83292,22.42248 l 3.20544,3.3704 c 7.49776,-7.1212 9.28638,-15.9742 9.28638,-25.79288 0,-9.8186 -1.78862,-18.6638 -9.28638,-25.78496 z M 129.55248,40.8396 c -0.5028,0 -0.97824,0.024 -1.44562,0.0532 -0.22504,0.016 -0.44649,0.036 -0.66298,0.0576 -0.20172,0.02 -0.39516,0.0472 -0.58976,0.0732 -0.59544,0.0824 -1.16568,0.1848 -1.69629,0.3212 -0.57341,0.1476 -1.12185,0.316 -1.61636,0.52992 -1.594,0.64604 -2.84271,1.5932 -3.74727,2.84256 -0.94782,1.2062 -1.61454,2.67156 -2.00223,4.39464 -0.38768,1.68016 -0.58306,3.55304 -0.58306,5.6208 v 2.58536 c 0,2.06768 0.19536,3.9406 0.58306,5.6208 0.38768,1.72304 1.05441,3.1884 2.00223,4.39464 0.90456,1.24932 2.15327,2.19644 3.74727,2.84252 0.49451,0.214 1.04295,0.382 1.61636,0.52992 0.53061,0.1364 1.10085,0.2388 1.69629,0.3216 0.19456,0.024 0.388,0.0532 0.58976,0.0732 0.21648,0.024 0.43798,0.0424 0.66298,0.0576 0.46738,0.028 0.94282,0.0532 1.44562,0.0532 h 7.62751 7.94888 V 40.83928 h -7.94888 -7.62751 z m 0.51666,6.52768 h 7.11085 V 64.6842 h -7.11085 c -1.9817,0 -3.2962,-0.62424 -3.94238,-1.8736 -0.64618,-1.24924 -0.96893,-3.29632 -0.96893,-6.13964 v -1.29044 c 0,-2.8434 0.32276,-4.89044 0.96893,-6.13968 0.64618,-1.24932 1.96068,-1.87356 3.94238,-1.87356 z m 19.82014,-6.52592 V 57.3192 c 0,2.06772 0.19436,3.94064 0.58204,5.6208 0.38768,1.72308 1.05396,3.18816 2.00178,4.39436 0.90457,1.24936 2.1539,2.19756 3.74789,2.84364 1.59389,0.68916 3.597,1.03316 6.00952,1.03316 h 6.37953 c -0.0659,2.35284 -0.37,4.11852 -0.94166,5.22372 -0.64617,1.24936 -1.95952,1.87292 -3.9412,1.87292 h -5.89104 -4.85584 l -0.82108,6.52712 h 12.08346 c 2.41252,0 4.41564,-0.344 6.00953,-1.03312 1.59399,-0.64604 2.84332,-1.59436 3.74789,-2.84368 0.94781,-1.2062 1.61618,-2.67132 2.00386,-4.39436 0.37052,-1.60576 0.55939,-3.39288 0.5758,-5.3526 h 0.006 v -0.2684 -30.1016 h -7.94894 v 23.84472 h -5.88895 c -1.98169,0 -3.29503,-0.62564 -3.94121,-1.87496 -0.64619,-1.24924 -0.97076,-3.29508 -0.97076,-6.1384 V 40.84116 Z M 87.010744,31.21284 v 39.99832 h 7.948944 V 57.3982 h 7.400162 c 0.5028,0 0.97731,-0.024 1.4447,-0.0544 0.22504,-0.016 0.44661,-0.032 0.6631,-0.056 0.20176,-0.02 0.39576,-0.0488 0.59035,-0.0728 0.59544,-0.0824 1.16561,-0.186 1.69622,-0.322 0.57342,-0.1476 1.12064,-0.316 1.61515,-0.53004 1.594,-0.64604 2.84333,-1.59228 3.74789,-2.8416 0.94782,-1.20624 1.6141,-2.67332 2.00179,-4.3964 0.38768,-1.68012 0.58411,-2.98348 0.58411,-4.81844 0,-1.83492 -0.1964,-3.14032 -0.58411,-4.82052 -0.38768,-1.72304 -1.05397,-3.19024 -2.00179,-4.39644 -0.90456,-1.24932 -2.15389,-2.19552 -3.74789,-2.84156 -0.49451,-0.2136 -1.04173,-0.3824 -1.61515,-0.53008 -0.53061,-0.1364 -1.10078,-0.2396 -1.69622,-0.3224 -0.1946,-0.028 -0.3886,-0.0528 -0.59035,-0.0728 -0.21648,-0.02 -0.43808,-0.0404 -0.6631,-0.0564 -0.46739,-0.028 -0.9419,-0.054 -1.4447,-0.054 z m 7.948944,6.52712 h 6.882572 c 1.98168,0 3.2971,0.6256 3.94329,1.87496 0.6462,1.2492 0.96867,2.74628 0.96867,4.6916 0,1.9454 -0.32248,3.4424 -0.96867,4.69164 -0.64619,1.24932 -1.96161,1.87292 -3.94329,1.87292 H 94.959688 Z M 292.33518,64.6842 h -9.24437 c -1.98169,0 -3.29619,-0.62424 -3.94237,-1.8736 -0.64618,-1.24924 -0.96893,-3.29632 -0.96893,-6.13964 v -1.29044 c 0,-2.8434 0.32276,-4.89044 0.96893,-6.13968 0.64618,-1.24932 1.96068,-1.87356 3.94237,-1.87356 h 9.24437 l 1.04596,-6.52748 h -4.40124 -6.40574 v -2e-4 c -0.5028,0 -0.97824,0.024 -1.44562,0.0532 -0.225,0.016 -0.4465,0.036 -0.66299,0.0576 -0.20172,0.02 -0.39516,0.0472 -0.58976,0.0732 -0.59544,0.0824 -1.16567,0.1848 -1.69628,0.3212 -0.57342,0.1476 -1.12185,0.316 -1.61637,0.52992 -1.594,0.64604 -2.84266,1.5932 -3.74722,2.84256 -0.94782,1.2062 -1.61454,2.67156 -2.00223,4.39464 -0.38768,1.68016 -0.58306,3.55304 -0.58306,5.6208 v 2.58536 c 0,2.06768 0.19536,3.9406 0.58306,5.6208 0.38768,1.72304 1.05441,3.1884 2.00223,4.39464 0.90456,1.24932 2.15322,2.19644 3.74722,2.84252 0.49452,0.214 1.04295,0.382 1.61637,0.52992 0.53061,0.1364 1.10084,0.2388 1.69628,0.3216 0.19456,0.024 0.388,0.0532 0.58976,0.0732 0.21648,0.024 0.43798,0.0424 0.66299,0.0576 0.46738,0.028 0.94282,0.0532 1.44562,0.0532 h 6.40574 4.40124 z m -57.04301,6.52776 H 220.938 c -2.41251,0 -4.41565,-0.3448 -6.00954,-1.03388 -1.594,-0.64608 -2.84334,-1.59388 -3.7479,-2.84324 -0.94782,-1.2062 -1.61557,-2.67088 -2.00325,-4.39396 -0.38768,-1.68016 -0.58148,-3.55412 -0.58148,-5.62184 V 40.84128 h 7.94809 v 15.83144 c 0,2.84332 0.32308,4.88964 0.96927,6.13888 0.64618,1.24932 1.96001,1.87392 3.94169,1.87392 h 5.8892 V 40.84128 h 7.94809 z m 4.7602,-30.37068 h 14.35417 c 2.41252,0 4.41566,0.3448 6.00954,1.03388 1.594,0.64616 2.84334,1.59392 3.7479,2.8432 0.94782,1.20624 1.61557,2.67092 2.00326,4.39408 0.38768,1.68008 0.58147,3.59144 0.58147,5.62184 v 16.4778 h -7.94808 V 55.38052 c 0,-2.84332 -0.32308,-4.8896 -0.96928,-6.13888 -0.64618,-1.24932 -1.96,-1.87396 -3.94169,-1.87396 h -5.8892 v 23.8444 h -7.94809 z m -58.70681,30.3708 V 31.213 H 205.836 v 6.59116 H 189.29365 V 47.497 h 14.47461 v 6.59112 h -14.47461 v 17.12396 z" />
</svg>
