<?xml version="1.0" encoding="UTF-8" standalone="no"?>
<svg
   xmlns:svg="http://www.w3.org/2000/svg"
   xmlns="http://www.w3.org/2000/svg"
   id="svg864"
   version="1.1"
   viewBox="0 0 56.192577 16.079956"
   height="16.079956mm"
   width="56.192577mm">
  <path
     style="fill:#cc0000;opacity:1;fill-opacity:1;fill-rule:nonzero;stroke:none;"
     d="m 10.079943,8.0399756 a 2.0399717,2.0399717 0 0 1 -2.0399718,2.0399704 2.0399717,2.0399717 0 0 1 -2.039972,-2.0399704 2.0399717,2.0399717 0 0 1 2.039972,-2.03997 2.0399717,2.0399717 0 0 1 2.0399718,2.03997 z"
     id="circle5433" />
  <path
     id="path5453"
     style="fill:#eeeeec;opacity:1;fill-opacity:1;fill-rule:nonzero;stroke:none;"
     d="m 47.010692,4.535622 c -1.124663,1.0681736 -1.392957,2.3949536 -1.392957,3.8677436 0,1.472802 0.268295,2.8007524 1.392957,3.8689324 l 0.480818,-0.50556 c -0.960855,-0.9126 -1.17494,-1.9687864 -1.174939,-3.3633724 0,-1.394574 0.214085,-2.449584 1.174939,-3.362184 z m 1.788924,0 -0.480817,0.5055596 c 0.960855,0.9126 1.174939,1.96761 1.174939,3.362184 0,1.394586 -0.214083,2.4507724 -1.174939,3.3633724 l 0.480817,0.50556 c 1.124664,-1.06818 1.392957,-2.3961304 1.392957,-3.8689324 0,-1.47279 -0.268293,-2.79957 -1.392957,-3.8677436 z M 19.432872,6.1259396 c -0.07542,0 -0.146737,0.0036 -0.216844,0.008 -0.03376,0.0024 -0.06697,0.0054 -0.09945,0.0086 -0.03026,0.003 -0.05927,0.0071 -0.08846,0.01098 -0.08932,0.01236 -0.174851,0.02772 -0.254443,0.04818 -0.08601,0.02214 -0.168278,0.0474 -0.242454,0.07949 -0.2391,0.09691 -0.426406,0.23898 -0.562091,0.426384 -0.142172,0.18093 -0.242181,0.400734 -0.300334,0.659196 -0.05815,0.252024 -0.08746,0.532956 -0.08746,0.84312 v 0.387804 c 0,0.310152 0.0293,0.59109 0.08746,0.84312 0.05815,0.258456 0.158162,0.47826 0.300334,0.6591964 0.135685,0.187398 0.322991,0.329466 0.562091,0.426378 0.07418,0.0321 0.156442,0.0573 0.242454,0.07949 0.07959,0.02046 0.165127,0.03582 0.254443,0.04824 0.02918,0.0036 0.0582,0.008 0.08846,0.01098 0.03247,0.0036 0.0657,0.0064 0.09945,0.0086 0.07011,0.0042 0.141424,0.008 0.216844,0.008 h 1.144126 1.192332 V 6.1258556 h -1.192332 -1.144126 z m 0.0775,0.979152 H 20.577 v 2.597538 h -1.06663 c -0.297254,0 -0.494429,-0.09364 -0.591356,-0.28104 -0.09693,-0.187386 -0.14534,-0.494448 -0.14534,-0.920946 v -0.193566 c 0,-0.42651 0.04841,-0.733566 0.14534,-0.920952 0.09693,-0.187398 0.294102,-0.281034 0.591356,-0.281034 z m 2.973021,-0.978888 v 2.471676 c 0,0.310158 0.02915,0.591096 0.08731,0.84312 0.05815,0.258462 0.158095,0.478224 0.300267,0.6591544 0.135686,0.187404 0.323085,0.329634 0.562184,0.426546 0.239083,0.103374 0.53955,0.154974 0.901428,0.154974 h 0.956929 c -0.0099,0.352926 -0.0555,0.617778 -0.141249,0.783558 -0.09692,0.187404 -0.293928,0.280938 -0.59118,0.280938 H 23.67542 22.947044 l -0.123161,0.979068 h 1.812519 c 0.361878,0 0.662345,-0.0516 0.901429,-0.154968 0.239098,-0.09691 0.426498,-0.239154 0.562183,-0.426552 0.142172,-0.18093 0.242427,-0.400698 0.300579,-0.659154 0.05558,-0.240864 0.08391,-0.508932 0.08637,-0.80289 h 9.6e-4 v -0.04026 -4.5152404 h -1.192341 v 3.576708 H 24.41224 c -0.297254,0 -0.494255,-0.09385 -0.591182,-0.281244 -0.09693,-0.187386 -0.145613,-0.494262 -0.145613,-0.92076 v -2.374704 z m -9.43178,-1.444278 v 5.9997484 h 1.192342 V 8.6097296 h 1.110024 c 0.07542,0 0.146597,-0.0036 0.216705,-0.0082 0.03376,-0.0024 0.06699,-0.0048 0.09947,-0.0084 0.03026,-0.003 0.05936,-0.0073 0.08855,-0.01092 0.08932,-0.01236 0.174842,-0.0279 0.254433,-0.0483 0.08601,-0.02214 0.168096,-0.0474 0.242273,-0.07951 0.2391,-0.09691 0.426499,-0.238842 0.562183,-0.42624 0.142173,-0.180936 0.242115,-0.400998 0.300269,-0.65946 0.05815,-0.252018 0.08762,-0.447522 0.08762,-0.722766 0,-0.275238 -0.02946,-0.471048 -0.08762,-0.723078 -0.05815,-0.258456 -0.158096,-0.478536 -0.300269,-0.659466 -0.135684,-0.187398 -0.323083,-0.329328 -0.562183,-0.426234 -0.07418,-0.03204 -0.15626,-0.05736 -0.242273,-0.07951 -0.07959,-0.02046 -0.165117,-0.03594 -0.254433,-0.04836 -0.02919,-0.0042 -0.05829,-0.0079 -0.08855,-0.01092 -0.03247,-0.003 -0.06571,-0.0061 -0.09947,-0.0085 -0.07011,-0.0042 -0.141285,-0.0081 -0.216705,-0.0081 z m 1.192342,0.979068 h 1.032385 c 0.297253,0 0.494566,0.09384 0.591494,0.281244 0.09693,0.18738 0.1453,0.411942 0.1453,0.70374 0,0.29181 -0.04837,0.51636 -0.1453,0.703746 -0.09693,0.187398 -0.294241,0.280938 -0.591494,0.280938 h -1.032385 z m 29.606322,4.041636 H 42.46362 c -0.297253,0 -0.494428,-0.09364 -0.591356,-0.28104 -0.09693,-0.187386 -0.145339,-0.494448 -0.145339,-0.920946 v -0.193566 c 0,-0.42651 0.04841,-0.733566 0.145339,-0.920952 0.09693,-0.187398 0.294103,-0.281034 0.591356,-0.281034 h 1.386655 l 0.156894,-0.979122 h -0.660186 -0.960861 v -3e-5 c -0.07542,0 -0.146736,0.0036 -0.216843,0.008 -0.03375,0.0024 -0.06697,0.0054 -0.09945,0.0086 -0.03026,0.003 -0.05927,0.0071 -0.08846,0.01098 -0.08932,0.01236 -0.174851,0.02772 -0.254443,0.04818 -0.08601,0.02214 -0.168278,0.0474 -0.242455,0.07949 -0.2391,0.09691 -0.426399,0.23898 -0.562083,0.426384 -0.142173,0.18093 -0.242182,0.400734 -0.300335,0.659196 -0.05815,0.252024 -0.08746,0.532956 -0.08746,0.84312 v 0.387804 c 0,0.310152 0.0293,0.59109 0.08746,0.84312 0.05815,0.258456 0.158162,0.47826 0.300335,0.6591964 0.135684,0.187398 0.322983,0.329466 0.562083,0.426378 0.07418,0.0321 0.156443,0.0573 0.242455,0.07949 0.07959,0.02046 0.165127,0.03582 0.254443,0.04824 0.02918,0.0036 0.0582,0.008 0.08846,0.01098 0.03247,0.0036 0.0657,0.0064 0.09945,0.0086 0.07011,0.0042 0.141424,0.008 0.216843,0.008 h 0.960861 0.660186 z m -8.55645,0.9791644 h -2.153126 c -0.361876,0 -0.662347,-0.05172 -0.901431,-0.155082 -0.239099,-0.09691 -0.4265,-0.239082 -0.562185,-0.426486 -0.142172,-0.1809304 -0.242335,-0.4006324 -0.300487,-0.6590944 -0.05815,-0.252024 -0.08722,-0.533118 -0.08722,-0.843276 v -2.471664 h 1.192213 v 2.374716 c 0,0.426498 0.04846,0.733446 0.145391,0.920832 0.09693,0.187398 0.294001,0.281088 0.591253,0.281088 h 0.883381 v -3.576636 h 1.192213 z m 0.71403,-4.5556024 h 2.153125 c 0.361877,0 0.662348,0.05172 0.901431,0.155082 0.2391,0.09692 0.426501,0.239088 0.562185,0.42648 0.142173,0.180936 0.242336,0.400638 0.300489,0.659112 0.05815,0.252012 0.08722,0.538716 0.08722,0.843276 V 10.681812 H 38.820094 V 8.3070776 c 0,-0.426498 -0.04846,-0.73344 -0.145391,-0.920832 -0.09693,-0.187398 -0.294,-0.281094 -0.591254,-0.281094 h -0.88338 V 10.681812 H 36.007856 Z M 27.201835,10.681812 V 4.6819496 h 3.673567 v 0.988674 h -2.481353 v 1.453926 h 2.171192 v 0.988668 h -2.171192 v 2.5685944 z" />
</svg>
