<?xml version="1.0" encoding="UTF-8" standalone="no"?>
<svg
   xmlns:svg="http://www.w3.org/2000/svg"
   xmlns="http://www.w3.org/2000/svg"
   id="svg864"
   version="1.1"
   viewBox="0 0 56.192581 17.196844"
   height="17.196844mm"
   width="56.192581mm">
  <path
     d="M 12.767424,4.4482295 C 11.979209,3.6620699 10.773988,3.6620699 8.6064376,3.6620699 c -2.167553,0 -3.3727711,0 -4.1609725,0.7861596 -0.7882011,0.7861568 -0.7882013,1.9882497 -0.7882013,4.1501737 0,2.1619608 2e-7,3.3640458 0.7882013,4.1502078 0.7882014,0.786163 1.9934195,0.786163 4.1609725,0.786163 2.1675504,0 3.3727714,0 4.1609864,-0.786163 0.788187,-0.786162 0.788187,-1.988247 0.788187,-4.1502078 0,-2.161924 0,-3.3640169 -0.788187,-4.1501737 z"
     id="path71" />
  <path
     id="path79"
     style="fill:#ffffff;fill-opacity:1"
     d="M 11.818754,8.0453235 C 11.699618,8.1641746 11.520885,8.1641746 11.195527,8.1641746 H 8.3680795 c -0.3253578,0 -0.5040622,0 -0.623227,-0.1188511 C 7.6257163,7.9264724 7.6257163,7.7482243 7.6257163,7.4237219 c 0,-0.3245308 0,-0.502779 0.1191362,-0.6216301 0.1191648,-0.1188226 0.2978692,-0.1188226 0.623227,-0.1188226 h 2.8274475 c 0.325358,0 0.504091,0 0.623227,0.1188226 0.119165,0.1188511 0.119165,0.2970993 0.119165,0.6216301 0,0.3245024 0,0.5027505 -0.119165,0.6216016 z m 2.8e-5,2.3448855 c -0.119136,0.118823 -0.297869,0.118823 -0.623226,0.118823 -0.325358,0 -0.504091,0 -0.623227,-0.118823 -0.119165,-0.118851 -0.119165,-0.297099 -0.119165,-0.6216298 0,-0.3245024 0,-0.502779 0.119165,-0.6216016 0.119136,-0.1188511 0.297869,-0.1188511 0.623227,-0.1188511 0.325357,0 0.50409,0 0.623226,0.1188511 0.119137,0.1188226 0.119137,0.2970992 0.119137,0.6216016 0,0.3245308 0,0.5073418 -0.119137,0.6216298 z m -2.3553503,0 c -0.1191363,0.118823 -0.2978692,0.118823 -0.623227,0.118823 H 6.0127543 c -0.3253634,0 -0.5040821,0 -0.6232298,-0.118823 C 5.2703768,10.271358 5.2703768,10.09311 5.2703768,9.7685792 c 0,-0.3245024 0,-0.502779 0.1191477,-0.6216016 C 5.5086722,9.0281265 5.6873909,9.0281265 6.0127543,9.0281265 h 2.8274504 c 0.3253578,0 0.5040907,0 0.623227,0.1188511 0.1191362,0.1188226 0.1191362,0.2970992 0.1191362,0.6216016 0,0.3245308 0,0.5073418 -0.1191362,0.6216298 z M 5.3941012,6.8020918 C 5.5132489,6.6832692 5.6919704,6.6832692 6.017331,6.6832692 c 0.3253635,0 0.5040793,0 0.6232441,0.1188226 0.1191363,0.1188511 0.1191363,0.2970993 0.1191363,0.6216301 0,0.3245024 0,0.5027505 -0.1191363,0.6216016 -0.1191648,0.1188511 -0.2978806,0.1188511 -0.6232441,0.1188511 -0.3253606,0 -0.5040821,0 -0.6232298,-0.1188511 C 5.2749564,7.9264724 5.2749564,7.7482243 5.2749564,7.4237219 c 0,-0.3245308 0,-0.502779 0.1191448,-0.6216301 z" />
  <path
     id="path116"
     d="m 18.553835,4.7495149 c -0.264578,0 -0.407889,-2e-7 -0.501593,0.093462 -0.0937,0.093462 -0.0937,0.2419016 -0.0937,0.5002973 0,0.2638963 0,0.406837 0.0937,0.5003011 0.0937,0.093461 0.242527,0.093461 0.501593,0.093461 0.264578,0 0.407892,0 0.501595,-0.093461 0.0937,-0.093464 0.09371,-0.2419026 0.09371,-0.5003011 0,-0.2638934 -3e-6,-0.4068349 -0.09371,-0.5002973 -0.0937,-0.093462 -0.242529,-0.093462 -0.501595,-0.093462 z m 24.771153,0 c -0.264592,0 -0.407909,-2e-7 -0.50161,0.093462 -0.0937,0.093462 -0.0937,0.2419016 -0.0937,0.5002973 0,0.2638963 0,0.406837 0.0937,0.5003011 0.0937,0.093461 0.242521,0.093461 0.50161,0.093461 0.264564,0 0.407881,0 0.501581,-0.093461 0.0937,-0.093464 0.0937,-0.2419026 0.0937,-0.5003011 0,-0.2638934 0,-0.4068349 -0.0937,-0.5002973 -0.0882,-0.093462 -0.237017,-0.093462 -0.501581,-0.093462 z M 18.83502,6.6957989 H 18.824 18.19562 17.385346 c -0.09371,0 -0.170875,0.076968 -0.170875,0.1704293 v 0.7037166 c 0,0.093476 0.07717,0.1704379 0.170875,0.1704379 h 0.633888 v 3.4031113 c 0,0.09347 0.07717,0.170435 0.170874,0.170435 h 0.705547 c 0.0937,0 0.170875,-0.07696 0.170875,-0.170435 V 6.9322037 C 19.07755,6.8002555 18.97282,6.6957989 18.83502,6.6957989 Z m 24.837339,0 h -0.705521 c -0.09373,0 -0.170891,0.076968 -0.170891,0.1704293 v 4.2772658 c 0,0.09347 0.07716,0.170435 0.170891,0.170435 h 0.705521 c 0.0937,0 0.170892,-0.07696 0.170892,-0.170435 V 6.8662282 c 0,-0.093461 -0.07719,-0.1704293 -0.170892,-0.1704293 z m 6.449156,-0.099064 c -1.355895,0 -2.397553,1.0390833 -2.397553,2.4135132 0,1.3689554 1.041658,2.4025434 2.397553,2.4025434 1.356181,0 2.40896,-1.033588 2.40896,-2.4025434 0.0054,-1.3689265 -1.047362,-2.4135132 -2.40896,-2.4135132 z m 0,3.8044536 c -0.766202,0 -1.355895,-0.6047494 -1.355895,-1.3909404 0,-0.7971694 0.589693,-1.4019185 1.355895,-1.4019185 0.766202,0 1.367016,0.6047491 1.367016,1.4019185 0,0.786191 -0.595111,1.3909404 -1.367016,1.3909404 z m -2.71179,-3.771396 c -0.09923,-0.016493 -0.198465,-0.027489 -0.29228,-0.027489 -0.551198,0 -0.975503,0.2638934 -1.251244,0.7092116 V 6.8716945 c 0,-0.093464 -0.07699,-0.1704321 -0.170749,-0.1704321 h -0.70555 c -0.0937,0 -0.170892,0.076968 -0.170892,0.1704321 v 4.2772745 c 0,0.09344 0.07719,0.170435 0.170892,0.170435 h 0.70555 c 0.09376,0 0.170749,-0.07699 0.170749,-0.170435 V 8.8509049 c 0,-0.8301898 0.551197,-1.2974874 1.223869,-1.2974874 0.08811,0 0.176224,0.010995 0.264621,0.021991 0.104651,0.016493 0.203883,-0.060475 0.203883,-0.1704321 V 6.7947265 c -0.01112,-0.076971 -0.06616,-0.153939 -0.148849,-0.1649345 z m -5.793193,0.054906 h -0.716557 c -0.0937,0 -0.170892,0.076968 -0.170892,0.1704322 v 0.621248 C 40.398365,6.915605 39.830628,6.5967344 39.086497,6.5967344 c -1.234706,0 -2.221358,1.0390833 -2.221358,2.3365508 0,1.2974678 0.986652,2.3475658 2.221358,2.3475658 0.738628,0 1.306364,-0.324388 1.642586,-0.890642 v 0.852147 c 0,0.7092 -0.595282,1.18201 -1.328406,1.18201 -0.606317,0 -1.113431,-0.241894 -1.22367,-0.670705 -0.02204,-0.07699 -0.0882,-0.131968 -0.16536,-0.131968 h -0.711053 c -0.104736,0 -0.18743,0.09347 -0.170891,0.197923 0.176394,1.13804 1.422135,1.484413 2.304052,1.484413 1.344945,0 2.359171,-0.802672 2.359171,-2.100169 V 6.8551301 C 41.787394,6.761666 41.710233,6.6846979 41.616532,6.6846979 Z M 39.31248,10.296737 c -0.788216,0 -1.405569,-0.5937711 -1.405569,-1.3634518 0,-0.7587024 0.617353,-1.3634459 1.405569,-1.3634459 0.804783,0 1.4111,0.5882617 1.4111,1.3634459 0.0055,0.786191 -0.606317,1.3634518 -1.4111,1.3634518 z M 36.479187,6.629792 C 36.379977,6.613299 36.28075,6.602303 36.187049,6.602303 c -0.551198,0 -0.975617,0.2638934 -1.251216,0.7092116 V 6.8716945 c 0,-0.093464 -0.07719,-0.1704321 -0.170891,-0.1704321 h -0.711054 c -0.0937,0 -0.170863,0.076968 -0.170863,0.1704321 v 4.2772745 c 0,0.09344 0.07716,0.170435 0.170863,0.170435 h 0.70555 c 0.0937,0 0.170863,-0.07699 0.170863,-0.170435 V 8.8509049 c 0,-0.8301898 0.551198,-1.2974874 1.22367,-1.2974874 0.0882,0 0.176395,0.010995 0.264592,0.021991 0.104736,0.016493 0.203941,-0.060475 0.203941,-0.1704321 V 6.7947265 c 0,-0.076971 -0.06062,-0.153939 -0.143317,-0.1649345 z m -5.627664,-0.033058 c -1.339413,0 -2.39222,1.0390833 -2.39222,2.3860246 0,1.379962 1.052807,2.430032 2.408759,2.430032 1.058311,0 1.896143,-0.555275 2.144196,-1.4184288 0.02755,-0.098948 -0.04408,-0.1979236 -0.14882,-0.1979236 h -0.749635 c -0.06615,0 -0.126778,0.038495 -0.148849,0.098976 -0.137785,0.3408414 -0.556701,0.5662534 -1.080353,0.5662534 -0.749635,0 -1.22367,-0.423335 -1.355952,-1.105047 h 3.351328 c 0.121246,0 0.220479,-0.093473 0.225982,-0.2144054 0.0055,-0.082466 0.0055,-0.170435 0.0055,-0.2309156 0.0055,-1.3579538 -1.008695,-2.3145656 -2.25994,-2.3145656 z m -1.289825,1.8582378 c 0.154352,-0.5662537 0.606346,-0.8961283 1.234706,-0.8961283 0.633891,0 1.080381,0.3683415 1.174082,0.8961283 z M 27.935394,6.6958188 H 26.893622 V 5.5632772 c 0,-0.093461 -0.07716,-0.1704322 -0.170863,-0.1704322 h -0.716586 c -0.0937,0 -0.170862,0.076971 -0.170862,0.1704322 v 1.1325416 h -0.711054 c -0.0937,0 -0.170891,0.076971 -0.170891,0.1704322 v 0.6542372 c 0,0.093458 0.07719,0.1704207 0.170891,0.1704207 h 0.711054 v 1.88026 c 0,1.1710311 0.683508,1.7977661 1.708741,1.7977661 0.121275,0 0.281102,-0.01101 0.418916,-0.02749 0.0882,-0.01101 0.148821,-0.08797 0.148821,-0.170435 v -0.626734 c 0,-0.09898 -0.0882,-0.181442 -0.187402,-0.170435 -0.04962,0.0055 -0.104736,0.0055 -0.154352,0.0055 -0.512617,0 -0.87091,-0.236419 -0.87091,-0.8246863 V 7.6909089 h 1.036269 c 0.09373,0 0.170891,-0.076962 0.170891,-0.1704207 V 6.866251 c 0.0055,-0.093461 -0.07166,-0.1704322 -0.170891,-0.1704322 z m -5.324775,-0.099084 c -0.617353,0 -1.107928,0.3023774 -1.405597,0.8246665 V 6.8661255 c 0,-0.093464 -0.07716,-0.1704321 -0.170863,-0.1704321 h -0.70555 c -0.0937,0 -0.170863,0.076968 -0.170863,0.1704321 v 4.2827575 c 0,0.09347 0.07716,0.170435 0.170863,0.170435 h 0.70555 c 0.0937,0 0.170863,-0.07696 0.170863,-0.170435 V 8.812324 c 0,-0.7256819 0.457525,-1.2039949 1.146537,-1.2039949 0.672472,0 1.118934,0.4728096 1.118934,1.2039949 v 2.336559 c 0,0.09347 0.07716,0.170435 0.170891,0.170435 h 0.716557 c 0.0937,0 0.170863,-0.07696 0.170863,-0.170435 V 8.6803844 c 0.01103,-1.2864749 -0.733096,-2.08365 -1.918185,-2.08365 z" />
</svg>
