<?xml version="1.0" encoding="UTF-8" standalone="no"?>
<svg
   xmlns:svg="http://www.w3.org/2000/svg"
   xmlns="http://www.w3.org/2000/svg"
   width="93.654297mm"
   height="28.661406mm"
   viewBox="0 0 93.654296 28.661405"
   version="1.1"
   id="svg864">
  <path
     d="m 21.279034,7.4137162 c -1.313693,-1.310266 -3.322394,-1.310266 -6.934978,-1.310266 -3.612588,0 -5.6212846,0 -6.9349535,1.310266 -1.3136685,1.3102613 -1.3136688,3.3137498 -1.3136688,6.9169558 0,3.603269 3e-7,5.606743 1.3136688,6.917013 1.3136689,1.310271 3.3223655,1.310271 6.9349535,1.310271 3.612584,0 5.621285,0 6.934978,-1.310271 1.313645,-1.31027 1.313645,-3.313744 1.313645,-6.917013 0,-3.603206 0,-5.6066945 -1.313645,-6.9169558 z"
     fill="#4059a7"
     id="path71" />
  <path
     id="path79"
     style="fill:#ffffff;fill-opacity:1"
     d="m 19.697917,13.408873 c -0.198561,0.198085 -0.496449,0.198085 -1.038712,0.198085 h -4.712412 c -0.542263,0 -0.840104,0 -1.038712,-0.198085 -0.19856,-0.198085 -0.19856,-0.495166 -0.19856,-1.036003 0,-0.540885 0,-0.837965 0.19856,-1.03605 0.198608,-0.198038 0.496449,-0.198038 1.038712,-0.198038 h 4.712412 c 0.542263,0 0.840151,0 1.038712,0.198038 0.198608,0.198085 0.198608,0.495165 0.198608,1.03605 0,0.540837 0,0.837918 -0.198608,1.036003 z m 4.7e-5,3.908143 c -0.19856,0.198037 -0.496448,0.198037 -1.038711,0.198037 -0.542263,0 -0.840151,0 -1.038712,-0.198037 -0.198608,-0.198086 -0.198608,-0.495166 -0.198608,-1.036051 0,-0.540837 0,-0.837965 0.198608,-1.036002 0.198561,-0.198085 0.496449,-0.198085 1.038712,-0.198085 0.542263,0 0.840151,0 1.038711,0.198085 0.198561,0.198037 0.198561,0.495165 0.198561,1.036002 0,0.540885 0,0.845569 -0.198561,1.036051 z m -3.925584,0 c -0.198561,0.198037 -0.496449,0.198037 -1.038712,0.198037 h -4.712417 c -0.5422723,0 -0.8401367,0 -1.0387162,-0.198037 C 8.7839554,17.11893 8.7839554,16.82185 8.7839554,16.280965 c 0,-0.540837 0,-0.837965 0.1985794,-1.036002 0.1985795,-0.198085 0.4964439,-0.198085 1.0387162,-0.198085 h 4.712417 c 0.542263,0 0.840151,0 1.038712,0.198085 0.19856,0.198037 0.19856,0.495165 0.19856,1.036002 0,0.540885 0,0.845569 -0.19856,1.036051 z M 8.9901626,11.33682 c 0.1985795,-0.198038 0.4964486,-0.198038 1.0387164,-0.198038 0.542272,0 0.840132,0 1.03874,0.198038 0.19856,0.198085 0.19856,0.495165 0.19856,1.03605 0,0.540837 0,0.837918 -0.19856,1.036003 -0.198608,0.198085 -0.496468,0.198085 -1.03874,0.198085 -0.5422678,0 -0.8401369,0 -1.0387164,-0.198085 -0.1985747,-0.198085 -0.1985747,-0.495166 -0.1985747,-1.036003 0,-0.540885 0,-0.837965 0.1985747,-1.03605 z" />
  <path
     id="path116"
     d="m 30.923052,7.9158585 c -0.440963,0 -0.679816,-3e-7 -0.835988,0.1557701 -0.156173,0.1557707 -0.156173,0.4031695 -0.156173,0.8338289 0,0.4398271 0,0.6780616 0.156173,0.833835 0.156172,0.1557688 0.404211,0.1557688 0.835988,0.1557688 0.440963,0 0.67982,0 0.835992,-0.1557688 0.156173,-0.1557734 0.156178,-0.4031708 0.156178,-0.833835 0,-0.4398223 -5e-6,-0.6780582 -0.156178,-0.8338289 C 31.602872,7.9158582 31.354828,7.9158585 30.923052,7.9158585 Z m 41.285254,0 c -0.440987,0 -0.679849,-3e-7 -0.836017,0.1557701 -0.156168,0.1557707 -0.156168,0.4031695 -0.156168,0.8338289 0,0.4398271 0,0.6780616 0.156168,0.833835 0.156168,0.1557688 0.404203,0.1557688 0.836017,0.1557688 0.440939,0 0.679801,0 0.835969,-0.1557688 0.156168,-0.1557734 0.156168,-0.4031708 0.156168,-0.833835 0,-0.4398223 0,-0.6780582 -0.156168,-0.8338289 C 72.897279,7.9158582 72.649245,7.9158585 72.208306,7.9158585 Z M 31.391693,11.159665 h -0.01837 -1.0473 -1.350457 c -0.156175,0 -0.284791,0.12828 -0.284791,0.284049 v 1.172861 c 0,0.155792 0.128616,0.284063 0.284791,0.284063 h 1.05648 v 5.671852 c 0,0.155788 0.128618,0.284058 0.284791,0.284058 h 1.175912 c 0.156173,0 0.28479,-0.12827 0.28479,-0.284058 v -7.018817 c 0.01837,-0.219914 -0.156177,-0.394008 -0.385848,-0.394008 z m 41.395565,0 h -1.175869 c -0.156216,0 -0.284819,0.12828 -0.284819,0.284049 v 7.128776 c 0,0.155788 0.128603,0.284058 0.284819,0.284058 h 1.175869 c 0.156168,0 0.284819,-0.12827 0.284819,-0.284058 v -7.128776 c 0,-0.155769 -0.128651,-0.284049 -0.284819,-0.284049 z m 10.748593,-0.165107 c -2.259825,0 -3.995922,1.731805 -3.995922,4.022521 0,2.281592 1.736097,4.004239 3.995922,4.004239 2.2603,0 4.014932,-1.722647 4.014932,-4.004239 0.009,-2.281544 -1.745602,-4.022521 -4.014932,-4.022521 z m 0,6.340755 c -1.277003,0 -2.259825,-1.007915 -2.259825,-2.318234 0,-1.328615 0.982822,-2.33653 2.259825,-2.33653 1.277003,0 2.27836,1.007915 2.27836,2.33653 0,1.310319 -0.991852,2.318234 -2.27836,2.318234 z m -4.51965,-6.285659 c -0.165388,-0.02749 -0.330776,-0.04582 -0.487134,-0.04582 -0.918663,0 -1.625838,0.439823 -2.085407,1.182019 v -0.733034 c 0,-0.155773 -0.128318,-0.284053 -0.284581,-0.284053 h -1.175917 c -0.156168,0 -0.284819,0.12828 -0.284819,0.284053 v 7.128791 c 0,0.15574 0.128651,0.284058 0.284819,0.284058 h 1.175917 c 0.156263,0 0.284581,-0.128318 0.284581,-0.284058 v -3.830107 c 0,-1.383649 0.918663,-2.162479 2.039783,-2.162479 0.146853,0 0.293706,0.01833 0.441034,0.03665 0.174418,0.02749 0.339806,-0.100792 0.339806,-0.284054 v -1.017083 c -0.01853,-0.128285 -0.110259,-0.256565 -0.248082,-0.27489 z m -9.655322,0.09151 h -1.194262 c -0.156168,0 -0.284819,0.128281 -0.284819,0.284054 v 1.035413 c -0.551197,-0.934621 -1.497425,-1.466072 -2.737643,-1.466072 -2.057843,0 -3.702264,1.731805 -3.702264,3.894251 0,2.162446 1.644421,3.91261 3.702264,3.91261 1.231046,0 2.177273,-0.540647 2.737643,-1.484403 v 1.420244 c 0,1.182 -0.992137,1.970016 -2.21401,1.970016 -1.010529,0 -1.855718,-0.403157 -2.039451,-1.117841 -0.03674,-0.128318 -0.146995,-0.219947 -0.275599,-0.219947 h -1.185089 c -0.17456,0 -0.312383,0.155788 -0.284819,0.329873 0.293991,1.896732 2.370226,2.474021 3.840087,2.474021 2.241575,0 3.931953,-1.337788 3.931953,-3.500281 v -7.247884 c -0.0092,-0.155773 -0.137823,-0.284054 -0.293991,-0.284054 z m -3.840087,6.020065 c -1.313693,0 -2.342614,-0.989618 -2.342614,-2.272419 0,-1.264504 1.028921,-2.27241 2.342614,-2.27241 1.341305,0 2.351834,0.980436 2.351834,2.27241 0.0092,1.310318 -1.010529,2.272419 -2.351834,2.272419 z m -4.722155,-6.111574 c -0.16534,-0.02749 -0.330728,-0.04582 -0.486896,-0.04582 -0.918663,0 -1.626028,0.439823 -2.08536,1.182019 v -0.733034 c 0,-0.155773 -0.128651,-0.284053 -0.284819,-0.284053 h -1.185089 c -0.156168,0 -0.284771,0.12828 -0.284771,0.284053 v 7.128791 c 0,0.15574 0.128603,0.284058 0.284771,0.284058 h 1.175917 c 0.156168,0 0.284771,-0.128318 0.284771,-0.284058 v -3.830107 c 0,-1.383649 0.918663,-2.162479 2.039451,-2.162479 0.146995,0 0.293991,0.01833 0.440986,0.03665 0.174561,0.02749 0.339901,-0.100792 0.339901,-0.284054 v -1.017083 c 0,-0.128285 -0.101039,-0.256565 -0.238862,-0.27489 z m -9.379438,-0.0551 c -2.232356,0 -3.987035,1.731805 -3.987035,3.976707 0,2.299936 1.754679,4.050053 4.014599,4.050053 1.763852,0 3.160239,-0.925459 3.573661,-2.364048 0.04591,-0.164912 -0.07347,-0.329872 -0.248035,-0.329872 h -1.249391 c -0.110258,0 -0.211297,0.06416 -0.248081,0.16496 -0.229642,0.568069 -0.927835,0.943756 -1.800589,0.943756 -1.249391,0 -2.03945,-0.70556 -2.25992,-1.841746 h 5.585546 c 0.202077,0 0.367465,-0.155787 0.376638,-0.357342 0.0092,-0.137443 0.0092,-0.284058 0.0092,-0.384859 0.0092,-2.263257 -1.681158,-3.857609 -3.766565,-3.857609 z M 49.26949,14.09162 c 0.257254,-0.943756 1.010576,-1.493547 2.057843,-1.493547 1.056486,0 1.800636,0.613903 1.956804,1.493547 z M 46.558983,11.159698 H 44.822696 V 9.272129 c 0,-0.1557688 -0.128603,-0.2840536 -0.284771,-0.2840536 h -1.19431 c -0.156167,0 -0.284771,0.1282848 -0.284771,0.2840536 v 1.887569 h -1.185089 c -0.156168,0 -0.284819,0.128285 -0.284819,0.284054 v 1.090395 c 0,0.155764 0.128651,0.284035 0.284819,0.284035 h 1.185089 v 3.133766 c 0,1.951719 1.13918,2.996276 2.847903,2.996276 0.202124,0 0.468503,-0.01834 0.698193,-0.04581 0.146995,-0.01835 0.248034,-0.146615 0.248034,-0.284058 v -1.044557 c 0,-0.164961 -0.146996,-0.302403 -0.312336,-0.284059 -0.08269,0.0092 -0.17456,0.0092 -0.257254,0.0092 -0.854361,0 -1.451516,-0.394032 -1.451516,-1.374478 v -3.106249 h 1.727115 c 0.156215,0 0.284819,-0.128271 0.284819,-0.284035 v -1.090395 c 0.0092,-0.155769 -0.119431,-0.284054 -0.284819,-0.284054 z m -8.874625,-0.16514 c -1.028922,0 -1.846546,0.503962 -2.342662,1.374444 v -0.925459 c 0,-0.155774 -0.128603,-0.284054 -0.284771,-0.284054 h -1.175917 c -0.156168,0 -0.284771,0.12828 -0.284771,0.284054 v 7.137929 c 0,0.155788 0.128603,0.284059 0.284771,0.284059 h 1.175917 c 0.156168,0 0.284771,-0.128271 0.284771,-0.284059 v -3.894265 c 0,-1.20947 0.762543,-2.006658 1.910895,-2.006658 1.120788,0 1.86489,0.788016 1.86489,2.006658 v 3.894265 c 0,0.155788 0.128604,0.284059 0.284819,0.284059 h 1.194262 c 0.156168,0 0.284771,-0.128271 0.284771,-0.284059 v -4.114165 c 0.01839,-2.144124 -1.221826,-3.472749 -3.196975,-3.472749 z" />
</svg>
