<?xml version="1.0" encoding="UTF-8" standalone="no"?>
<!-- Created with Inkscape (http://www.inkscape.org/) -->

<svg
   xmlns:dc="http://purl.org/dc/elements/1.1/"
   xmlns:cc="http://creativecommons.org/ns#"
   xmlns:rdf="http://www.w3.org/1999/02/22-rdf-syntax-ns#"
   xmlns:svg="http://www.w3.org/2000/svg"
   xmlns="http://www.w3.org/2000/svg"
   xmlns:sodipodi="http://sodipodi.sourceforge.net/DTD/sodipodi-0.dtd"
   xmlns:inkscape="http://www.inkscape.org/namespaces/inkscape"
   width="97.62677mm"
   height="26.799927mm"
   viewBox="0 0 97.626769 26.799926"
   version="1.1"
   id="svg864"
   inkscape:version="0.92.3 (2405546, 2018-03-11)"
   sodipodi:docname="cardfunc-space.svg">
  <defs
     id="defs858" />
  <sodipodi:namedview
     id="base"
     pagecolor="#ffffff"
     bordercolor="#666666"
     borderopacity="1.0"
     inkscape:pageopacity="0.0"
     inkscape:pageshadow="2"
     inkscape:zoom="3.959798"
     inkscape:cx="159.47205"
     inkscape:cy="63.046196"
     inkscape:document-units="mm"
     inkscape:current-layer="layer1"
     showgrid="false"
     inkscape:snap-bbox="true"
     inkscape:snap-bbox-edge-midpoints="true"
     inkscape:bbox-nodes="true"
     inkscape:snap-smooth-nodes="true"
     showguides="true"
     inkscape:guide-bbox="true"
     fit-margin-top="0"
     fit-margin-left="0"
     fit-margin-right="0"
     fit-margin-bottom="0"
     inkscape:window-width="2517"
     inkscape:window-height="1385"
     inkscape:window-x="2603"
     inkscape:window-y="27"
     inkscape:window-maximized="1"
     inkscape:bbox-paths="true" />
  <metadata
     id="metadata861">
    <rdf:RDF>
      <cc:Work
         rdf:about="">
        <dc:format>image/svg+xml</dc:format>
        <dc:type
           rdf:resource="http://purl.org/dc/dcmitype/StillImage" />
        <dc:title></dc:title>
      </cc:Work>
    </rdf:RDF>
  </metadata>
  <g
     inkscape:label="Layer 1"
     inkscape:groupmode="layer"
     id="layer1"
     transform="translate(0.05259286,-162.5195)">
    <rect
       id="rect518"
       width="97.62677"
       height="26.799917"
       x="-0.052592862"
       y="162.5195"
       style="fill:#2e3436;stroke-width:0.02378861" />
    <g
       id="g1541"
       transform="matrix(1.0056315,0,0,1.0056315,-0.26341262,-0.9906969)">
      <path
         id="circle4277"
         d="m 16.915469,175.91946 a 3.3809133,3.3809133 0 0 1 -3.380914,3.38092 3.3809133,3.3809133 0 0 1 -3.380913,-3.38092 3.3809133,3.3809133 0 0 1 3.380913,-3.38091 3.3809133,3.3809133 0 0 1 3.380914,3.38091 z"
         style="opacity:1;fill:#edd400;fill-opacity:1;fill-rule:nonzero;stroke:none;stroke-width:1;stroke-linecap:round;stroke-linejoin:miter;stroke-miterlimit:4;stroke-dasharray:none;stroke-dashoffset:4.80000019;stroke-opacity:1"
         inkscape:connector-curvature="0" />
      <path
         d="m 173.44336,29.328125 v 9.042969 h -0.0606 -7.16601 v 0.002 c -0.47243,0 -0.92023,0.02161 -1.35938,0.04883 -0.21142,0.01512 -0.41768,0.03466 -0.62109,0.05469 -0.18955,0.0189 -0.37186,0.04379 -0.55469,0.06836 -0.55947,0.07748 -1.09519,0.174608 -1.59375,0.302734 -0.53877,0.138709 -1.05489,0.297203 -1.51953,0.498047 -1.49771,0.60703 -2.66961,1.496039 -3.51953,2.669922 -0.89056,1.133329 -1.51855,2.509908 -1.88281,4.128906 -0.36428,1.578633 -0.54688,3.338422 -0.54688,5.28125 v 2.429688 c 0,1.942828 0.1826,3.702579 0.54688,5.28125 0.36427,1.618998 0.99225,2.995577 1.88281,4.128906 0.84992,1.173883 2.02182,2.064845 3.51953,2.671875 0.46464,0.201071 0.98076,0.359187 1.51953,0.498047 0.49856,0.128126 1.03428,0.223301 1.59375,0.300781 0.18282,0.02268 0.36513,0.04946 0.55469,0.06836 0.20341,0.02268 0.40968,0.04032 0.62109,0.05469 0.43915,0.02646 0.88695,0.05078 1.35938,0.05078 h 7.16601 0.0606 7.4082 0.0606 V 29.328125 Z m -6.74219,15.177734 h 6.68164 v 16.271485 h -6.68164 c -1.86197,0 -3.09598,-0.587873 -3.70312,-1.761719 -0.60715,-1.17377 -0.91016,-3.095981 -0.91016,-5.767578 v -1.212891 c 0,-2.671559 0.30302,-4.595761 0.91016,-5.769531 0.60714,-1.173883 1.84115,-1.759766 3.70312,-1.759766 z M 136.52539,38.375 v 28.535156 h 7.46875 V 44.505859 h 5.5332 c 1.25831,0 2.22301,0.274459 2.90821,0.810547 l 3.14257,-6 C 154.093,38.690497 152.24036,38.375 150.01172,38.375 Z M 104.00872,60.776618 H 93.189412 c -1.861973,0 -3.097066,-0.586545 -3.704213,-1.76039 -0.607147,-1.173771 -0.910402,-3.097172 -0.910402,-5.768769 V 42.856668 c 0,-2.671597 0.30327,-4.594998 0.910402,-5.768768 0.607147,-1.173846 1.84224,-1.760429 3.704213,-1.760429 h 10.819308 l 0.98272,-6.133115 h -4.13536 -8.152107 v -1.89e-4 c -0.472426,0 -0.919147,0.02268 -1.358294,0.04989 -0.211427,0.01512 -0.41952,0.03402 -0.622935,0.05405 -0.189543,0.0189 -0.3713,0.04422 -0.554131,0.06879 -0.559469,0.07748 -1.095254,0.173858 -1.593816,0.301984 -0.538771,0.138709 -1.05408,0.297071 -1.51872,0.497915 -1.497706,0.60703 -2.670931,1.496957 -3.520853,2.670841 -0.890558,1.133329 -1.517011,2.510173 -1.881278,4.129172 -0.364271,1.578671 -0.547839,3.338419 -0.547839,5.281247 v 11.607458 c 0,1.942829 0.183572,3.702577 0.547839,5.281248 0.36427,1.618998 0.99072,2.995842 1.881278,4.129171 0.849922,1.173884 2.023147,2.063811 3.520853,2.670841 0.46464,0.201071 0.979949,0.359055 1.51872,0.497915 0.498562,0.128126 1.034347,0.224504 1.593816,0.301985 0.182816,0.02268 0.364573,0.04989 0.554131,0.06879 0.203415,0.02268 0.411523,0.03968 0.622935,0.05405 0.439147,0.02646 0.885868,0.04989 1.358294,0.04989 h 8.152107 4.13536 z M 309.40206,28.409915 c -7.04489,6.691011 -8.71802,15.00926 -8.71802,24.234747 0,9.225487 1.67313,17.536328 8.71802,24.227339 l 3.01181,-3.166828 c -6.01879,-5.71646 -7.35975,-12.324927 -7.35975,-21.060511 0,-8.735584 1.34096,-15.351458 7.35975,-21.067918 z m 11.2057,0 -3.01181,3.166829 c 6.01879,5.71646 7.36713,12.332334 7.36713,21.067918 0,8.735584 -1.34834,15.344051 -7.36713,21.060511 l 3.01181,3.166828 c 7.0449,-6.691011 8.7254,-15.001852 8.7254,-24.227339 0,-9.225487 -1.68051,-17.543736 -8.7254,-24.234747 z M 117.4596,38.372486 c -0.47243,0 -0.91915,0.02268 -1.3583,0.04989 -0.21142,0.01512 -0.41952,0.03402 -0.62293,0.05405 -0.18954,0.0189 -0.3713,0.04422 -0.55413,0.06879 -0.55947,0.07748 -1.09526,0.173858 -1.59381,0.301984 -0.53878,0.138709 -1.05408,0.297071 -1.51872,0.497915 -1.49771,0.60703 -2.67104,1.496958 -3.52097,2.670841 -0.89055,1.133329 -1.51701,2.510173 -1.88127,4.129172 -0.36427,1.578633 -0.54784,3.338419 -0.54784,5.281247 v 2.42914 c 0,1.942829 0.18357,3.702577 0.54784,5.281248 0.36427,1.618998 0.99072,2.995842 1.88127,4.129171 0.84993,1.173884 2.02326,2.063811 3.52097,2.670841 0.46464,0.201071 0.97994,0.359055 1.51872,0.497915 0.49855,0.128126 1.03434,0.224504 1.59381,0.301985 0.18281,0.02268 0.36457,0.04989 0.55413,0.06879 0.20342,0.02268 0.41152,0.03968 0.62293,0.05405 0.43915,0.02646 0.88587,0.04989 1.3583,0.04989 h 7.16672 7.46869 V 38.371919 h -7.46869 -7.16672 z m 0.48544,6.133304 h 6.68128 v 16.270828 h -6.68128 c -1.86198,0 -3.09707,-0.586545 -3.70422,-1.76039 -0.60714,-1.173771 -0.91039,-3.097172 -0.91039,-5.768769 v -1.21251 c 0,-2.671559 0.30327,-4.594961 0.91039,-5.768731 0.60715,-1.173884 1.84224,-1.760428 3.70422,-1.760428 z m 171.66369,16.270828 h -8.68598 c -1.86197,0 -3.09707,-0.586545 -3.70421,-1.76039 -0.60715,-1.173771 -0.9104,-3.097172 -0.9104,-5.768769 v -1.21251 c 0,-2.671559 0.30327,-4.594961 0.9104,-5.768731 0.60714,-1.173884 1.84224,-1.760428 3.70421,-1.760428 h 8.68598 l 0.98272,-6.133116 h -4.13536 -6.01878 v -1.88e-4 c -0.47242,0 -0.91915,0.02268 -1.35829,0.04989 -0.21143,0.01512 -0.41952,0.03402 -0.62293,0.05405 -0.18955,0.0189 -0.3713,0.04422 -0.55414,0.06879 -0.55946,0.07748 -1.09525,0.173858 -1.59381,0.301984 -0.53878,0.138709 -1.05408,0.297071 -1.51872,0.497915 -1.49771,0.60703 -2.67094,1.496958 -3.52085,2.670841 -0.89057,1.133329 -1.51702,2.510173 -1.88129,4.129172 -0.36427,1.578633 -0.54783,3.338419 -0.54783,5.281247 v 2.42914 c 0,1.942829 0.18357,3.702577 0.54783,5.281248 0.36428,1.618998 0.99072,2.995842 1.88129,4.129171 0.84991,1.173884 2.02314,2.063811 3.52085,2.670841 0.46464,0.201071 0.97994,0.359055 1.51872,0.497915 0.49856,0.128126 1.03435,0.224504 1.59381,0.301985 0.18282,0.02268 0.36458,0.04989 0.55414,0.06879 0.20341,0.02268 0.41152,0.03968 0.62293,0.05405 0.43914,0.02646 0.88587,0.04989 1.35829,0.04989 h 6.01878 4.13536 z m -53.59713,6.133417 h -13.48704 c -2.26677,0 -4.1489,-0.323905 -5.6465,-0.971414 -1.49771,-0.60703 -2.67158,-1.4976 -3.5215,-2.671445 -0.89056,-1.13333 -1.51797,-2.509569 -1.88224,-4.12853 -0.36427,-1.57867 -0.54634,-3.339439 -0.54634,-5.282267 V 38.374035 h 7.46794 V 53.24916 c 0,2.671559 0.30358,4.594205 0.91072,5.767975 0.60715,1.173883 1.8416,1.760768 3.70358,1.760768 h 5.53344 V 38.374035 h 7.46794 z m 4.47265,-28.536 h 13.48704 c 2.26677,0 4.1489,0.323906 5.6465,0.971414 1.49771,0.607144 2.67158,1.497638 3.5215,2.671484 0.89056,1.133367 1.51797,2.509568 1.88224,4.128642 0.36427,1.578596 0.54634,3.374476 0.54634,5.28223 v 15.482344 h -7.46794 v -14.8752 c 0,-2.671522 -0.30358,-4.594167 -0.91072,-5.767975 -0.60715,-1.173846 -1.8416,-1.760769 -3.70358,-1.760769 h -5.53344 v 22.403944 h -7.46794 z M 185.32392,66.910149 V 29.327433 h 23.01099 v 6.192945 h -15.54304 v 9.107339 h 13.60021 v 6.192945 h -13.60021 v 16.089487 z"
         style="opacity:1;fill:#eeeeec;fill-opacity:1;fill-rule:nonzero;stroke:none;stroke-width:21.33333397;stroke-linecap:round;stroke-linejoin:miter;stroke-miterlimit:4;stroke-dasharray:none;stroke-dashoffset:4.80000019;stroke-opacity:1"
         transform="matrix(0.26458333,0,0,0.26458333,0.20963916,162.59454)"
         id="rect4314"
         inkscape:connector-curvature="0" />
    </g>
    <rect
       style="opacity:0.61000001;fill:#ffffff;stroke:none;stroke-width:3.12150359;stroke-linecap:round;stroke-linejoin:round;stroke-miterlimit:4;stroke-dasharray:none;stroke-dashoffset:0;stroke-opacity:1"
       id="rect1473"
       width="10"
       height="10"
       x="8.3473606"
       y="162.51952" />
    <rect
       y="170.91946"
       x="-0.052592862"
       height="10"
       width="10"
       id="rect1475"
       style="opacity:0.61000001;fill:#ffffff;stroke:none;stroke-width:3.12150359;stroke-linecap:round;stroke-linejoin:round;stroke-miterlimit:4;stroke-dasharray:none;stroke-dashoffset:0;stroke-opacity:1" />
    <rect
       style="opacity:0.61000001;fill:#ffffff;stroke:none;stroke-width:3.12150359;stroke-linecap:round;stroke-linejoin:round;stroke-miterlimit:4;stroke-dasharray:none;stroke-dashoffset:0;stroke-opacity:1"
       id="rect1477"
       width="10"
       height="10"
       x="8.3473606"
       y="179.31943" />
    <rect
       y="171.90355"
       x="87.574181"
       height="10"
       width="10"
       id="rect1479"
       style="opacity:0.61000001;fill:#ffffff;stroke:none;stroke-width:3.12150359;stroke-linecap:round;stroke-linejoin:round;stroke-miterlimit:4;stroke-dasharray:none;stroke-dashoffset:0;stroke-opacity:1" />
    <rect
       y="170.32272"
       x="21.700094"
       height="10"
       width="10"
       id="rect1543"
       style="opacity:0.61000001;fill:#ffffff;stroke:none;stroke-width:3.12150359;stroke-linecap:round;stroke-linejoin:round;stroke-miterlimit:4;stroke-dasharray:none;stroke-dashoffset:0;stroke-opacity:1" />
  </g>
</svg>
